<svg xmlns="http://www.w3.org/2000/svg" version="1.1" xmlns:xlink="http://www.w3.org/1999/xlink" xmlns:svgjs="http://svgjs.com/svgjs" width="1440" height="560" preserveAspectRatio="none" viewBox="0 0 1440 560"><g mask="url(&quot;#SvgjsMask1000&quot;)" fill="none"><rect width="1440" height="560" x="0" y="0" fill="#1e3266"></rect><path d="M1488 560L0 560 L0 349.59Q31.18 308.77, 72 339.96Q85.79 281.75, 144 295.54Q213.76 245.3, 264 315.06Q311.91 290.97, 336 338.87Q367.17 250.04, 456 281.21Q504.8 258.01, 528 306.81Q591.4 298.22, 600 361.62Q645.63 287.25, 720 332.89Q740.48 281.37, 792 301.84Q872.83 262.66, 912 343.49Q961 320.5, 984 369.5Q1001.67 267.17, 1104 284.84Q1145.01 253.85, 1176 294.86Q1258.05 256.9, 1296 338.95Q1344.06 315, 1368 363.06Q1403.47 278.53, 1488 314.01z" fill="#182f5d"></path><path d="M1488 560L0 560 L0 415.38Q43.46 338.84, 120 382.3Q203.23 345.53, 240 428.77Q261.75 330.52, 360 352.28Q403.5 323.78, 432 367.28Q506.8 322.07, 552 396.87Q566.16 339.03, 624 353.2Q671.03 328.23, 696 375.25Q791.62 350.87, 816 446.48Q853.22 363.7, 936 400.91Q970.65 315.56, 1056 350.21Q1133.86 308.06, 1176 385.92Q1226.31 316.23, 1296 366.53Q1362.65 361.18, 1368 427.83Q1408.99 348.82, 1488 389.82z" fill="#25467d"></path><path d="M1464 560L0 560 L0 434.25Q39.61 401.86, 72 441.46Q144.18 393.64, 192 465.82Q207.85 409.67, 264 425.52Q305.94 395.46, 336 437.4Q411.76 441.16, 408 516.93Q462.95 451.88, 528 506.82Q557.47 416.28, 648 445.75Q689.55 415.3, 720 456.85Q784.49 449.34, 792 513.83Q816.03 465.87, 864 489.9Q893.84 399.74, 984 429.57Q1028.65 402.22, 1056 446.87Q1101.35 420.22, 1128 465.57Q1169.84 435.4, 1200 477.24Q1209.38 414.62, 1272 423.99Q1315.39 395.38, 1344 438.77Q1435.4 410.17, 1464 501.57z" fill="#356cb1"></path><path d="M1464 560L0 560 L0 553.63Q42.49 524.12, 72 566.6Q119.23 493.83, 192 541.06Q214.51 491.57, 264 514.07Q290.25 468.33, 336 494.58Q432.73 471.31, 456 568.05Q485.87 477.92, 576 507.79Q625.38 485.17, 648 534.55Q687.09 453.63, 768 492.72Q842.6 447.32, 888 521.92Q944.9 506.82, 960 563.72Q1009.29 493.01, 1080 542.31Q1093.26 483.57, 1152 496.83Q1195.44 468.27, 1224 511.72Q1298.68 466.4, 1344 541.08Q1417.22 494.31, 1464 567.53z" fill="white"></path></g><defs><mask id="SvgjsMask1000"><rect width="1440" height="560" fill="#ffffff"></rect></mask></defs></svg>