<svg xmlns="http://www.w3.org/2000/svg" version="1.1" xmlns:xlink="http://www.w3.org/1999/xlink" xmlns:svgjs="http://svgjs.com/svgjs" width="1440" height="560" preserveAspectRatio="none" viewBox="0 0 1440 560"><g mask="url(&quot;#SvgjsMask1000&quot;)" fill="none"><rect width="1440" height="560" x="0" y="0" fill="#0e2a47"></rect><path d="M55.56 162.97L120.51 200.47L120.51 275.47L55.56 312.97L-9.39 275.47L-9.39 200.47zM185.47 -62.03L250.42 -24.53L250.42 50.47L185.47 87.97L120.51 50.47L120.51 -24.53zM640.14 500.47L705.1 537.97L705.1 612.97L640.14 650.47L575.19 612.97L575.19 537.97zM899.96 500.47L964.91 537.97L964.91 612.97L899.96 650.47L835 612.97L835 537.97zM964.91 -62.03L1029.87 -24.53L1029.87 50.47L964.91 87.97L899.96 50.47L899.96 -24.53zM1029.87 275.47L1094.82 312.97L1094.82 387.97L1029.87 425.47L964.91 387.97L964.91 312.97zM964.91 387.97L1029.87 425.47L1029.87 500.47L964.91 537.97L899.96 500.47L899.96 425.47zM1029.87 500.47L1094.82 537.97L1094.82 612.97L1029.87 650.47L964.91 612.97L964.91 537.97zM1289.68 275.47L1354.63 312.97L1354.63 387.97L1289.68 425.47L1224.73 387.97L1224.73 312.97zM1224.73 387.97L1289.68 425.47L1289.68 500.47L1224.73 537.97L1159.77 500.47L1159.77 425.47zM1354.63 387.97L1419.59 425.47L1419.59 500.47L1354.63 537.97L1289.68 500.47L1289.68 425.47zM1549.5 50.47L1614.45 87.97L1614.45 162.97L1549.5 200.47L1484.54 162.97L1484.54 87.97z" stroke="#03305d" stroke-width="2"></path><path d="M48.06 162.97 a7.5 7.5 0 1 0 15 0 a7.5 7.5 0 1 0 -15 0zM113.01 200.47 a7.5 7.5 0 1 0 15 0 a7.5 7.5 0 1 0 -15 0zM113.01 275.47 a7.5 7.5 0 1 0 15 0 a7.5 7.5 0 1 0 -15 0zM48.06 312.97 a7.5 7.5 0 1 0 15 0 a7.5 7.5 0 1 0 -15 0zM-16.89 275.47 a7.5 7.5 0 1 0 15 0 a7.5 7.5 0 1 0 -15 0zM-16.89 200.47 a7.5 7.5 0 1 0 15 0 a7.5 7.5 0 1 0 -15 0zM177.97 -62.03 a7.5 7.5 0 1 0 15 0 a7.5 7.5 0 1 0 -15 0zM242.92 -24.53 a7.5 7.5 0 1 0 15 0 a7.5 7.5 0 1 0 -15 0zM242.92 50.47 a7.5 7.5 0 1 0 15 0 a7.5 7.5 0 1 0 -15 0zM177.97 87.97 a7.5 7.5 0 1 0 15 0 a7.5 7.5 0 1 0 -15 0zM113.01 50.47 a7.5 7.5 0 1 0 15 0 a7.5 7.5 0 1 0 -15 0zM113.01 -24.53 a7.5 7.5 0 1 0 15 0 a7.5 7.5 0 1 0 -15 0zM632.64 500.47 a7.5 7.5 0 1 0 15 0 a7.5 7.5 0 1 0 -15 0zM697.6 537.97 a7.5 7.5 0 1 0 15 0 a7.5 7.5 0 1 0 -15 0zM697.6 612.97 a7.5 7.5 0 1 0 15 0 a7.5 7.5 0 1 0 -15 0zM632.64 650.47 a7.5 7.5 0 1 0 15 0 a7.5 7.5 0 1 0 -15 0zM567.69 612.97 a7.5 7.5 0 1 0 15 0 a7.5 7.5 0 1 0 -15 0zM567.69 537.97 a7.5 7.5 0 1 0 15 0 a7.5 7.5 0 1 0 -15 0zM892.46 500.47 a7.5 7.5 0 1 0 15 0 a7.5 7.5 0 1 0 -15 0zM957.41 537.97 a7.5 7.5 0 1 0 15 0 a7.5 7.5 0 1 0 -15 0zM957.41 612.97 a7.5 7.5 0 1 0 15 0 a7.5 7.5 0 1 0 -15 0zM892.46 650.47 a7.5 7.5 0 1 0 15 0 a7.5 7.5 0 1 0 -15 0zM827.5 612.97 a7.5 7.5 0 1 0 15 0 a7.5 7.5 0 1 0 -15 0zM827.5 537.97 a7.5 7.5 0 1 0 15 0 a7.5 7.5 0 1 0 -15 0zM957.41 -62.03 a7.5 7.5 0 1 0 15 0 a7.5 7.5 0 1 0 -15 0zM1022.37 -24.53 a7.5 7.5 0 1 0 15 0 a7.5 7.5 0 1 0 -15 0zM1022.37 50.47 a7.5 7.5 0 1 0 15 0 a7.5 7.5 0 1 0 -15 0zM957.41 87.97 a7.5 7.5 0 1 0 15 0 a7.5 7.5 0 1 0 -15 0zM892.46 50.47 a7.5 7.5 0 1 0 15 0 a7.5 7.5 0 1 0 -15 0zM892.46 -24.53 a7.5 7.5 0 1 0 15 0 a7.5 7.5 0 1 0 -15 0zM1022.37 275.47 a7.5 7.5 0 1 0 15 0 a7.5 7.5 0 1 0 -15 0zM1087.32 312.97 a7.5 7.5 0 1 0 15 0 a7.5 7.5 0 1 0 -15 0zM1087.32 387.97 a7.5 7.5 0 1 0 15 0 a7.5 7.5 0 1 0 -15 0zM1022.37 425.47 a7.5 7.5 0 1 0 15 0 a7.5 7.5 0 1 0 -15 0zM957.41 387.97 a7.5 7.5 0 1 0 15 0 a7.5 7.5 0 1 0 -15 0zM957.41 312.97 a7.5 7.5 0 1 0 15 0 a7.5 7.5 0 1 0 -15 0zM1022.37 500.47 a7.5 7.5 0 1 0 15 0 a7.5 7.5 0 1 0 -15 0zM892.46 425.47 a7.5 7.5 0 1 0 15 0 a7.5 7.5 0 1 0 -15 0zM1087.32 537.97 a7.5 7.5 0 1 0 15 0 a7.5 7.5 0 1 0 -15 0zM1087.32 612.97 a7.5 7.5 0 1 0 15 0 a7.5 7.5 0 1 0 -15 0zM1022.37 650.47 a7.5 7.5 0 1 0 15 0 a7.5 7.5 0 1 0 -15 0zM1282.18 275.47 a7.5 7.5 0 1 0 15 0 a7.5 7.5 0 1 0 -15 0zM1347.13 312.97 a7.5 7.5 0 1 0 15 0 a7.5 7.5 0 1 0 -15 0zM1347.13 387.97 a7.5 7.5 0 1 0 15 0 a7.5 7.5 0 1 0 -15 0zM1282.18 425.47 a7.5 7.5 0 1 0 15 0 a7.5 7.5 0 1 0 -15 0zM1217.23 387.97 a7.5 7.5 0 1 0 15 0 a7.5 7.5 0 1 0 -15 0zM1217.23 312.97 a7.5 7.5 0 1 0 15 0 a7.5 7.5 0 1 0 -15 0zM1282.18 500.47 a7.5 7.5 0 1 0 15 0 a7.5 7.5 0 1 0 -15 0zM1217.23 537.97 a7.5 7.5 0 1 0 15 0 a7.5 7.5 0 1 0 -15 0zM1152.27 500.47 a7.5 7.5 0 1 0 15 0 a7.5 7.5 0 1 0 -15 0zM1152.27 425.47 a7.5 7.5 0 1 0 15 0 a7.5 7.5 0 1 0 -15 0zM1412.09 425.47 a7.5 7.5 0 1 0 15 0 a7.5 7.5 0 1 0 -15 0zM1412.09 500.47 a7.5 7.5 0 1 0 15 0 a7.5 7.5 0 1 0 -15 0zM1347.13 537.97 a7.5 7.5 0 1 0 15 0 a7.5 7.5 0 1 0 -15 0zM1542 50.47 a7.5 7.5 0 1 0 15 0 a7.5 7.5 0 1 0 -15 0zM1606.95 87.97 a7.5 7.5 0 1 0 15 0 a7.5 7.5 0 1 0 -15 0zM1606.95 162.97 a7.5 7.5 0 1 0 15 0 a7.5 7.5 0 1 0 -15 0zM1542 200.47 a7.5 7.5 0 1 0 15 0 a7.5 7.5 0 1 0 -15 0zM1477.04 162.97 a7.5 7.5 0 1 0 15 0 a7.5 7.5 0 1 0 -15 0zM1477.04 87.97 a7.5 7.5 0 1 0 15 0 a7.5 7.5 0 1 0 -15 0z" fill="#03305d"></path><path d="M5.28 -32.75L48.58 -7.75L48.58 42.25L5.28 67.25L-38.02 42.25L-38.02 -7.75zM48.58 42.25L91.89 67.25L91.89 117.25L48.58 142.25L5.28 117.25L5.28 67.25zM5.28 417.25L48.58 442.25L48.58 492.25L5.28 517.25L-38.02 492.25L-38.02 442.25zM48.58 492.25L91.89 517.25L91.89 567.25L48.58 592.25L5.28 567.25L5.28 517.25zM135.19 42.25L178.49 67.25L178.49 117.25L135.19 142.25L91.89 117.25L91.89 67.25zM135.19 342.25L178.49 367.25L178.49 417.25L135.19 442.25L91.89 417.25L91.89 367.25zM91.89 417.25L135.19 442.25L135.19 492.25L91.89 517.25L48.58 492.25L48.58 442.25zM221.79 192.25L265.09 217.25L265.09 267.25L221.79 292.25L178.49 267.25L178.49 217.25zM178.49 267.25L221.79 292.25L221.79 342.25L178.49 367.25L135.19 342.25L135.19 292.25zM265.09 117.25L308.4 142.25L308.4 192.25L265.09 217.25L221.79 192.25L221.79 142.25zM308.4 192.25L351.7 217.25L351.7 267.25L308.4 292.25L265.09 267.25L265.09 217.25zM438.31 117.25L481.61 142.25L481.61 192.25L438.31 217.25L395 192.25L395 142.25zM481.61 192.25L524.91 217.25L524.91 267.25L481.61 292.25L438.31 267.25L438.31 217.25zM481.61 342.25L524.91 367.25L524.91 417.25L481.61 442.25L438.31 417.25L438.31 367.25zM524.91 117.25L568.21 142.25L568.21 192.25L524.91 217.25L481.61 192.25L481.61 142.25zM741.42 192.25L784.73 217.25L784.73 267.25L741.42 292.25L698.12 267.25L698.12 217.25zM741.42 342.25L784.73 367.25L784.73 417.25L741.42 442.25L698.12 417.25L698.12 367.25zM871.33 117.25L914.63 142.25L914.63 192.25L871.33 217.25L828.03 192.25L828.03 142.25zM957.94 117.25L1001.24 142.25L1001.24 192.25L957.94 217.25L914.63 192.25L914.63 142.25zM957.94 417.25L1001.24 442.25L1001.24 492.25L957.94 517.25L914.63 492.25L914.63 442.25zM1087.84 192.25L1131.14 217.25L1131.14 267.25L1087.84 292.25L1044.54 267.25L1044.54 217.25zM1087.84 492.25L1131.14 517.25L1131.14 567.25L1087.84 592.25L1044.54 567.25L1044.54 517.25zM1174.45 42.25L1217.75 67.25L1217.75 117.25L1174.45 142.25L1131.14 117.25L1131.14 67.25zM1217.75 117.25L1261.05 142.25L1261.05 192.25L1217.75 217.25L1174.45 192.25L1174.45 142.25zM1261.05 192.25L1304.36 217.25L1304.36 267.25L1261.05 292.25L1217.75 267.25L1217.75 217.25zM1304.36 -32.75L1347.66 -7.75L1347.66 42.25L1304.36 67.25L1261.05 42.25L1261.05 -7.75zM1304.36 267.25L1347.66 292.25L1347.66 342.25L1304.36 367.25L1261.05 342.25L1261.05 292.25zM1347.66 342.25L1390.96 367.25L1390.96 417.25L1347.66 442.25L1304.36 417.25L1304.36 367.25z" stroke="rgba(6, 80, 156, 0.93)" stroke-width="2"></path></g><defs><mask id="SvgjsMask1000"><rect width="1440" height="560" fill="#ffffff"></rect></mask></defs></svg>