<svg xmlns="http://www.w3.org/2000/svg" version="1.1" xmlns:xlink="http://www.w3.org/1999/xlink" xmlns:svgjs="http://svgjs.com/svgjs" width="1440" height="560" preserveAspectRatio="none" viewBox="0 0 1440 560"><g clip-path="url(&quot;#SvgjsClipPath1000&quot;)" fill="none"><rect width="1440" height="560" x="0" y="0" fill="#0e2a47"></rect><circle r="93.335" cx="-55.34" cy="51.77" stroke="#365aa3" stroke-opacity="0.25" stroke-width="2"></circle><circle r="93.335" cx="455.65" cy="314.55" stroke="#365aa3" stroke-opacity="0.25" stroke-width="2"></circle><circle r="93.335" cx="836.6" cy="828.97" stroke="#365aa3" stroke-opacity="0.25" stroke-width="2"></circle><circle r="62.46" cx="984.56" cy="51.39" stroke="#365aa3" stroke-opacity="0.25" stroke-width="2"></circle><circle r="50.105" cx="541.66" cy="124.28" stroke="#365aa3" stroke-opacity="0.25" stroke-width="2"></circle><circle r="85.3" cx="460.76" cy="240.57" stroke="#365aa3" stroke-opacity="0.25" stroke-width="2"></circle><circle r="183.72" cx="586.6" cy="77.62" stroke="#365aa3" stroke-opacity="0.25" stroke-width="2"></circle><circle r="85.38" cx="1001.14" cy="380.64" stroke="#365aa3" stroke-opacity="0.25" stroke-width="2"></circle><circle r="125.63" cx="419.68" cy="172.56" stroke="#365aa3" stroke-opacity="0.25" stroke-width="2"></circle><circle r="105.12" cx="1301.3" cy="424.66" stroke="#365aa3" stroke-opacity="0.25" stroke-width="2"></circle><circle r="92.695" cx="1360.88" cy="217.06" stroke="#365aa3" stroke-opacity="0.25" stroke-width="2"></circle><circle r="135.945" cx="768.44" cy="302.35" stroke="#365aa3" stroke-opacity="0.25" stroke-width="2"></circle><circle r="161.25" cx="1239.55" cy="137.93" stroke="#365aa3" stroke-opacity="0.25" stroke-width="2"></circle><circle r="100.06" cx="366.22" cy="36.88" stroke="#365aa3" stroke-opacity="0.25" stroke-width="2"></circle><circle r="61.805" cx="478.49" cy="548.52" stroke="#365aa3" stroke-opacity="0.25" stroke-width="2"></circle><circle r="98.075" cx="1238.76" cy="467.25" stroke="#365aa3" stroke-opacity="0.25" stroke-width="2"></circle><circle r="101.075" cx="1114.43" cy="325.69" stroke="#365aa3" stroke-opacity="0.25" stroke-width="2"></circle><circle r="78.49" cx="732.72" cy="517.23" stroke="#365aa3" stroke-opacity="0.25" stroke-width="2"></circle><circle r="162.685" cx="684.76" cy="372.11" stroke="#365aa3" stroke-opacity="0.25" stroke-width="2"></circle><circle r="113.405" cx="1270.34" cy="504.56" stroke="#365aa3" stroke-opacity="0.25" stroke-width="2"></circle><circle r="166.815" cx="344.02" cy="348.58" stroke="#365aa3" stroke-opacity="0.25" stroke-width="2"></circle><circle r="56.57" cx="1067.02" cy="132.48" stroke="#365aa3" stroke-opacity="0.25" stroke-width="2"></circle><circle r="68.145" cx="884.6" cy="475.84" stroke="#365aa3" stroke-opacity="0.25" stroke-width="2"></circle><circle r="59.065" cx="142.88" cy="482.9" stroke="#365aa3" stroke-opacity="0.25" stroke-width="2"></circle><circle r="48.065" cx="1406.37" cy="338.09" stroke="#365aa3" stroke-opacity="0.25" stroke-width="2"></circle><circle r="106.01" cx="983.04" cy="431.82" stroke="#365aa3" stroke-opacity="0.25" stroke-width="2"></circle><circle r="118.1" cx="462.57" cy="187.49" stroke="#365aa3" stroke-opacity="0.25" stroke-width="2"></circle><circle r="116.655" cx="433.93" cy="439.28" stroke="#365aa3" stroke-opacity="0.25" stroke-width="2"></circle><circle r="186.44" cx="1274.12" cy="308.17" stroke="#365aa3" stroke-opacity="0.25" stroke-width="2"></circle><circle r="102.735" cx="931.42" cy="544.41" stroke="#365aa3" stroke-opacity="0.25" stroke-width="2"></circle><circle r="166.885" cx="1214.15" cy="494.5" stroke="#365aa3" stroke-opacity="0.25" stroke-width="2"></circle><circle r="64.22" cx="608.06" cy="244.42" stroke="#365aa3" stroke-opacity="0.25" stroke-width="2"></circle><circle r="145.345" cx="1252.53" cy="481.98" stroke="#365aa3" stroke-opacity="0.25" stroke-width="2"></circle><circle r="151.755" cx="161.35" cy="456.48" stroke="#365aa3" stroke-opacity="0.25" stroke-width="2"></circle><circle r="169.305" cx="873.64" cy="189.55" stroke="#365aa3" stroke-opacity="0.25" stroke-width="2"></circle><circle r="105.575" cx="40.17" cy="424.79" stroke="#365aa3" stroke-opacity="0.25" stroke-width="2"></circle><circle r="139.655" cx="956.07" cy="197.12" stroke="#365aa3" stroke-opacity="0.25" stroke-width="2"></circle><circle r="50.39" cx="857.19" cy="439.6" stroke="#365aa3" stroke-opacity="0.25" stroke-width="2"></circle><circle r="49.385" cx="1410.56" cy="438.79" stroke="#365aa3" stroke-opacity="0.25" stroke-width="2"></circle><circle r="78.09" cx="1328.13" cy="559.31" stroke="#365aa3" stroke-opacity="0.25" stroke-width="2"></circle></g><defs><clipPath id="SvgjsClipPath1000"><rect width="1440" height="560" x="0" y="0"></rect></clipPath></defs></svg>