<svg xmlns="http://www.w3.org/2000/svg" version="1.1" xmlns:xlink="http://www.w3.org/1999/xlink" xmlns:svgjs="http://svgjs.com/svgjs" width="1440" height="560" preserveAspectRatio="none" viewBox="0 0 1440 560"><g mask="url(&quot;#SvgjsMask1000&quot;)" fill="none"><rect width="1440" height="560" x="0" y="0" fill="#0e2a47"></rect><path d="M-58.43 339.72L-58.43 339.72" stroke="#132e65" stroke-width="1.5"></path><path d="M-58.43 339.72L74.23 380.18" stroke="#132e65" stroke-width="1.5"></path><path d="M-58.43 339.72L46.78 487.82" stroke="#132e65" stroke-width="1.5"></path><path d="M-58.43 339.72L-66.24 532.12" stroke="#132e65" stroke-width="1.5"></path><path d="M-58.43 339.72L202.65 394.25" stroke="#132e65" stroke-width="1.5"></path><path d="M-58.43 339.72L-53.43 689.66" stroke="#132e65" stroke-width="1.5"></path><path d="M-66.24 532.12L-66.24 532.12" stroke="#132e65" stroke-width="1.5"></path><path d="M-66.24 532.12L46.78 487.82" stroke="#132e65" stroke-width="1.5"></path><path d="M-66.24 532.12L-53.43 689.66" stroke="#132e65" stroke-width="1.5"></path><path d="M-53.43 689.66L-53.43 689.66" stroke="#132e65" stroke-width="1.5"></path><path d="M-53.43 689.66L68.77 691.51" stroke="#132e65" stroke-width="1.5"></path><path d="M-53.43 689.66L46.78 487.82" stroke="#132e65" stroke-width="1.5"></path><path d="M74.23 380.18L74.23 380.18" stroke="#132e65" stroke-width="1.5"></path><path d="M74.23 380.18L46.78 487.82" stroke="#132e65" stroke-width="1.5"></path><path d="M74.23 380.18L202.65 394.25" stroke="#132e65" stroke-width="1.5"></path><path d="M74.23 380.18L-66.24 532.12" stroke="#132e65" stroke-width="1.5"></path><path d="M46.78 487.82L46.78 487.82" stroke="#132e65" stroke-width="1.5"></path><path d="M68.77 691.51L68.77 691.51" stroke="#132e65" stroke-width="1.5"></path><path d="M68.77 691.51L260.01 709.01" stroke="#132e65" stroke-width="1.5"></path><path d="M68.77 691.51L46.78 487.82" stroke="#132e65" stroke-width="1.5"></path><path d="M68.77 691.51L-66.24 532.12" stroke="#132e65" stroke-width="1.5"></path><path d="M202.65 394.25L202.65 394.25" stroke="#132e65" stroke-width="1.5"></path><path d="M202.65 394.25L253.86 532.48" stroke="#132e65" stroke-width="1.5"></path><path d="M202.65 394.25L380.47 376.01" stroke="#132e65" stroke-width="1.5"></path><path d="M202.65 394.25L46.78 487.82" stroke="#132e65" stroke-width="1.5"></path><path d="M202.65 394.25L391.01 499.19" stroke="#132e65" stroke-width="1.5"></path><path d="M253.86 532.48L253.86 532.48" stroke="#132e65" stroke-width="1.5"></path><path d="M253.86 532.48L391.01 499.19" stroke="#132e65" stroke-width="1.5"></path><path d="M260.01 709.01L260.01 709.01" stroke="#132e65" stroke-width="1.5"></path><path d="M260.01 709.01L384.59 646.23" stroke="#132e65" stroke-width="1.5"></path><path d="M260.01 709.01L253.86 532.48" stroke="#132e65" stroke-width="1.5"></path><path d="M260.01 709.01L391.01 499.19" stroke="#132e65" stroke-width="1.5"></path><path d="M260.01 709.01L46.78 487.82" stroke="#132e65" stroke-width="1.5"></path><path d="M380.47 376.01L380.47 376.01" stroke="#132e65" stroke-width="1.5"></path><path d="M380.47 376.01L499.84 366.24" stroke="#132e65" stroke-width="1.5"></path><path d="M380.47 376.01L391.01 499.19" stroke="#132e65" stroke-width="1.5"></path><path d="M391.01 499.19L391.01 499.19" stroke="#132e65" stroke-width="1.5"></path><path d="M391.01 499.19L531.14 504.57" stroke="#132e65" stroke-width="1.5"></path><path d="M384.59 646.23L384.59 646.23" stroke="#132e65" stroke-width="1.5"></path><path d="M384.59 646.23L391.01 499.19" stroke="#132e65" stroke-width="1.5"></path><path d="M384.59 646.23L253.86 532.48" stroke="#132e65" stroke-width="1.5"></path><path d="M384.59 646.23L531.14 504.57" stroke="#132e65" stroke-width="1.5"></path><path d="M499.84 366.24L499.84 366.24" stroke="#132e65" stroke-width="1.5"></path><path d="M499.84 366.24L531.14 504.57" stroke="#132e65" stroke-width="1.5"></path><path d="M499.84 366.24L391.01 499.19" stroke="#132e65" stroke-width="1.5"></path><path d="M499.84 366.24L678.57 386.63" stroke="#132e65" stroke-width="1.5"></path><path d="M531.14 504.57L531.14 504.57" stroke="#132e65" stroke-width="1.5"></path><path d="M531.14 504.57L676.61 537.66" stroke="#132e65" stroke-width="1.5"></path><path d="M531.14 504.57L678.57 386.63" stroke="#132e65" stroke-width="1.5"></path><path d="M659.49 229.69L659.49 229.69" stroke="#132e65" stroke-width="1.5"></path><path d="M659.49 229.69L678.57 386.63" stroke="#132e65" stroke-width="1.5"></path><path d="M659.49 229.69L861.39 226.89" stroke="#132e65" stroke-width="1.5"></path><path d="M659.49 229.69L499.84 366.24" stroke="#132e65" stroke-width="1.5"></path><path d="M659.49 229.69L843 103.37" stroke="#132e65" stroke-width="1.5"></path><path d="M659.49 229.69L856.97 379.53" stroke="#132e65" stroke-width="1.5"></path><path d="M678.57 386.63L678.57 386.63" stroke="#132e65" stroke-width="1.5"></path><path d="M678.57 386.63L676.61 537.66" stroke="#132e65" stroke-width="1.5"></path><path d="M678.57 386.63L800.32 509.67" stroke="#132e65" stroke-width="1.5"></path><path d="M678.57 386.63L856.97 379.53" stroke="#132e65" stroke-width="1.5"></path><path d="M676.61 537.66L676.61 537.66" stroke="#132e65" stroke-width="1.5"></path><path d="M676.61 537.66L684.71 642.62" stroke="#132e65" stroke-width="1.5"></path><path d="M684.71 642.62L684.71 642.62" stroke="#132e65" stroke-width="1.5"></path><path d="M684.71 642.62L843.19 672.75" stroke="#132e65" stroke-width="1.5"></path><path d="M684.71 642.62L800.32 509.67" stroke="#132e65" stroke-width="1.5"></path><path d="M843 103.37L843 103.37" stroke="#132e65" stroke-width="1.5"></path><path d="M843 103.37L955.36 61.56" stroke="#132e65" stroke-width="1.5"></path><path d="M843 103.37L861.39 226.89" stroke="#132e65" stroke-width="1.5"></path><path d="M843 103.37L1001.77 219.07" stroke="#132e65" stroke-width="1.5"></path><path d="M843 103.37L967.28 -110.62" stroke="#132e65" stroke-width="1.5"></path><path d="M861.39 226.89L861.39 226.89" stroke="#132e65" stroke-width="1.5"></path><path d="M861.39 226.89L1001.77 219.07" stroke="#132e65" stroke-width="1.5"></path><path d="M861.39 226.89L856.97 379.53" stroke="#132e65" stroke-width="1.5"></path><path d="M861.39 226.89L955.36 61.56" stroke="#132e65" stroke-width="1.5"></path><path d="M861.39 226.89L976.29 383.62" stroke="#132e65" stroke-width="1.5"></path><path d="M856.97 379.53L856.97 379.53" stroke="#132e65" stroke-width="1.5"></path><path d="M856.97 379.53L976.29 383.62" stroke="#132e65" stroke-width="1.5"></path><path d="M856.97 379.53L800.32 509.67" stroke="#132e65" stroke-width="1.5"></path><path d="M856.97 379.53L949.79 489.56" stroke="#132e65" stroke-width="1.5"></path><path d="M856.97 379.53L1001.77 219.07" stroke="#132e65" stroke-width="1.5"></path><path d="M800.32 509.67L800.32 509.67" stroke="#132e65" stroke-width="1.5"></path><path d="M800.32 509.67L676.61 537.66" stroke="#132e65" stroke-width="1.5"></path><path d="M800.32 509.67L949.79 489.56" stroke="#132e65" stroke-width="1.5"></path><path d="M800.32 509.67L843.19 672.75" stroke="#132e65" stroke-width="1.5"></path><path d="M843.19 672.75L843.19 672.75" stroke="#132e65" stroke-width="1.5"></path><path d="M843.19 672.75L963.42 661.86" stroke="#132e65" stroke-width="1.5"></path><path d="M967.28 -110.62L967.28 -110.62" stroke="#132e65" stroke-width="1.5"></path><path d="M967.28 -110.62L955.36 61.56" stroke="#132e65" stroke-width="1.5"></path><path d="M967.28 -110.62L1144.95 83.13" stroke="#132e65" stroke-width="1.5"></path><path d="M967.28 -110.62L1001.77 219.07" stroke="#132e65" stroke-width="1.5"></path><path d="M967.28 -110.62L1303.7 -92.22" stroke="#132e65" stroke-width="1.5"></path><path d="M967.28 -110.62L1281.8 42.78" stroke="#132e65" stroke-width="1.5"></path><path d="M955.36 61.56L955.36 61.56" stroke="#132e65" stroke-width="1.5"></path><path d="M955.36 61.56L1001.77 219.07" stroke="#132e65" stroke-width="1.5"></path><path d="M1001.77 219.07L1001.77 219.07" stroke="#132e65" stroke-width="1.5"></path><path d="M1001.77 219.07L1129.35 231.46" stroke="#132e65" stroke-width="1.5"></path><path d="M1001.77 219.07L976.29 383.62" stroke="#132e65" stroke-width="1.5"></path><path d="M1001.77 219.07L1104.55 352.17" stroke="#132e65" stroke-width="1.5"></path><path d="M976.29 383.62L976.29 383.62" stroke="#132e65" stroke-width="1.5"></path><path d="M976.29 383.62L949.79 489.56" stroke="#132e65" stroke-width="1.5"></path><path d="M976.29 383.62L1104.55 352.17" stroke="#132e65" stroke-width="1.5"></path><path d="M949.79 489.56L949.79 489.56" stroke="#132e65" stroke-width="1.5"></path><path d="M949.79 489.56L1119.02 523.93" stroke="#132e65" stroke-width="1.5"></path><path d="M963.42 661.86L963.42 661.86" stroke="#132e65" stroke-width="1.5"></path><path d="M963.42 661.86L949.79 489.56" stroke="#132e65" stroke-width="1.5"></path><path d="M963.42 661.86L1149.9 701.89" stroke="#132e65" stroke-width="1.5"></path><path d="M963.42 661.86L1119.02 523.93" stroke="#132e65" stroke-width="1.5"></path><path d="M963.42 661.86L800.32 509.67" stroke="#132e65" stroke-width="1.5"></path><path d="M1144.95 83.13L1144.95 83.13" stroke="#132e65" stroke-width="1.5"></path><path d="M1144.95 83.13L1281.8 42.78" stroke="#132e65" stroke-width="1.5"></path><path d="M1144.95 83.13L1129.35 231.46" stroke="#132e65" stroke-width="1.5"></path><path d="M1144.95 83.13L955.36 61.56" stroke="#132e65" stroke-width="1.5"></path><path d="M1144.95 83.13L1001.77 219.07" stroke="#132e65" stroke-width="1.5"></path><path d="M1144.95 83.13L1303.7 -92.22" stroke="#132e65" stroke-width="1.5"></path><path d="M1129.35 231.46L1129.35 231.46" stroke="#132e65" stroke-width="1.5"></path><path d="M1129.35 231.46L1104.55 352.17" stroke="#132e65" stroke-width="1.5"></path><path d="M1129.35 231.46L1310.7 259.07" stroke="#132e65" stroke-width="1.5"></path><path d="M1129.35 231.46L1307.3 342.52" stroke="#132e65" stroke-width="1.5"></path><path d="M1129.35 231.46L976.29 383.62" stroke="#132e65" stroke-width="1.5"></path><path d="M1104.55 352.17L1104.55 352.17" stroke="#132e65" stroke-width="1.5"></path><path d="M1104.55 352.17L1119.02 523.93" stroke="#132e65" stroke-width="1.5"></path><path d="M1104.55 352.17L1307.3 342.52" stroke="#132e65" stroke-width="1.5"></path><path d="M1119.02 523.93L1119.02 523.93" stroke="#132e65" stroke-width="1.5"></path><path d="M1119.02 523.93L1239.61 533.85" stroke="#132e65" stroke-width="1.5"></path><path d="M1119.02 523.93L1149.9 701.89" stroke="#132e65" stroke-width="1.5"></path><path d="M1149.9 701.89L1149.9 701.89" stroke="#132e65" stroke-width="1.5"></path><path d="M1149.9 701.89L1252.94 691.21" stroke="#132e65" stroke-width="1.5"></path><path d="M1303.7 -92.22L1303.7 -92.22" stroke="#132e65" stroke-width="1.5"></path><path d="M1303.7 -92.22L1435.06 -74.73" stroke="#132e65" stroke-width="1.5"></path><path d="M1303.7 -92.22L1281.8 42.78" stroke="#132e65" stroke-width="1.5"></path><path d="M1303.7 -92.22L1394.82 105.7" stroke="#132e65" stroke-width="1.5"></path><path d="M1281.8 42.78L1281.8 42.78" stroke="#132e65" stroke-width="1.5"></path><path d="M1281.8 42.78L1394.82 105.7" stroke="#132e65" stroke-width="1.5"></path><path d="M1281.8 42.78L1435.06 -74.73" stroke="#132e65" stroke-width="1.5"></path><path d="M1281.8 42.78L1310.7 259.07" stroke="#132e65" stroke-width="1.5"></path><path d="M1310.7 259.07L1310.7 259.07" stroke="#132e65" stroke-width="1.5"></path><path d="M1310.7 259.07L1307.3 342.52" stroke="#132e65" stroke-width="1.5"></path><path d="M1310.7 259.07L1427.74 230.14" stroke="#132e65" stroke-width="1.5"></path><path d="M1310.7 259.07L1423.78 339.23" stroke="#132e65" stroke-width="1.5"></path><path d="M1310.7 259.07L1394.82 105.7" stroke="#132e65" stroke-width="1.5"></path><path d="M1307.3 342.52L1307.3 342.52" stroke="#132e65" stroke-width="1.5"></path><path d="M1307.3 342.52L1423.78 339.23" stroke="#132e65" stroke-width="1.5"></path><path d="M1307.3 342.52L1427.74 230.14" stroke="#132e65" stroke-width="1.5"></path><path d="M1307.3 342.52L1239.61 533.85" stroke="#132e65" stroke-width="1.5"></path><path d="M1239.61 533.85L1239.61 533.85" stroke="#132e65" stroke-width="1.5"></path><path d="M1252.94 691.21L1252.94 691.21" stroke="#132e65" stroke-width="1.5"></path><path d="M1252.94 691.21L1239.61 533.85" stroke="#132e65" stroke-width="1.5"></path><path d="M1252.94 691.21L1452.83 668.43" stroke="#132e65" stroke-width="1.5"></path><path d="M1252.94 691.21L1119.02 523.93" stroke="#132e65" stroke-width="1.5"></path><path d="M1252.94 691.21L1442.55 523.44" stroke="#132e65" stroke-width="1.5"></path><path d="M1435.06 -74.73L1435.06 -74.73" stroke="#132e65" stroke-width="1.5"></path><path d="M1435.06 -74.73L1543.55 -97.26" stroke="#132e65" stroke-width="1.5"></path><path d="M1394.82 105.7L1394.82 105.7" stroke="#132e65" stroke-width="1.5"></path><path d="M1394.82 105.7L1427.74 230.14" stroke="#132e65" stroke-width="1.5"></path><path d="M1427.74 230.14L1427.74 230.14" stroke="#132e65" stroke-width="1.5"></path><path d="M1427.74 230.14L1423.78 339.23" stroke="#132e65" stroke-width="1.5"></path><path d="M1427.74 230.14L1558.09 387.06" stroke="#132e65" stroke-width="1.5"></path><path d="M1427.74 230.14L1580.35 61.03" stroke="#132e65" stroke-width="1.5"></path><path d="M1423.78 339.23L1423.78 339.23" stroke="#132e65" stroke-width="1.5"></path><path d="M1442.55 523.44L1442.55 523.44" stroke="#132e65" stroke-width="1.5"></path><path d="M1442.55 523.44L1561.53 550.27" stroke="#132e65" stroke-width="1.5"></path><path d="M1442.55 523.44L1452.83 668.43" stroke="#132e65" stroke-width="1.5"></path><path d="M1452.83 668.43L1452.83 668.43" stroke="#132e65" stroke-width="1.5"></path><path d="M1452.83 668.43L1558.9 640.34" stroke="#132e65" stroke-width="1.5"></path><path d="M1452.83 668.43L1561.53 550.27" stroke="#132e65" stroke-width="1.5"></path><path d="M1543.55 -97.26L1543.55 -97.26" stroke="#132e65" stroke-width="1.5"></path><path d="M1543.55 -97.26L1580.35 61.03" stroke="#132e65" stroke-width="1.5"></path><path d="M1543.55 -97.26L1303.7 -92.22" stroke="#132e65" stroke-width="1.5"></path><path d="M1543.55 -97.26L1394.82 105.7" stroke="#132e65" stroke-width="1.5"></path><path d="M1543.55 -97.26L1281.8 42.78" stroke="#132e65" stroke-width="1.5"></path><path d="M1543.55 -97.26L1427.74 230.14" stroke="#132e65" stroke-width="1.5"></path><path d="M1580.35 61.03L1580.35 61.03" stroke="#132e65" stroke-width="1.5"></path><path d="M1580.35 61.03L1394.82 105.7" stroke="#132e65" stroke-width="1.5"></path><path d="M1580.35 61.03L1435.06 -74.73" stroke="#132e65" stroke-width="1.5"></path><path d="M1580.35 61.03L1281.8 42.78" stroke="#132e65" stroke-width="1.5"></path><path d="M1580.35 61.03L1303.7 -92.22" stroke="#132e65" stroke-width="1.5"></path><path d="M1558.09 387.06L1558.09 387.06" stroke="#132e65" stroke-width="1.5"></path><path d="M1558.09 387.06L1423.78 339.23" stroke="#132e65" stroke-width="1.5"></path><path d="M1558.09 387.06L1561.53 550.27" stroke="#132e65" stroke-width="1.5"></path><path d="M1558.09 387.06L1442.55 523.44" stroke="#132e65" stroke-width="1.5"></path><path d="M1561.53 550.27L1561.53 550.27" stroke="#132e65" stroke-width="1.5"></path><path d="M1561.53 550.27L1558.9 640.34" stroke="#132e65" stroke-width="1.5"></path><path d="M1561.53 550.27L1423.78 339.23" stroke="#132e65" stroke-width="1.5"></path><path d="M1561.53 550.27L1239.61 533.85" stroke="#132e65" stroke-width="1.5"></path><path d="M1558.9 640.34L1558.9 640.34" stroke="#132e65" stroke-width="1.5"></path><path d="M1558.9 640.34L1442.55 523.44" stroke="#132e65" stroke-width="1.5"></path><path d="M1558.9 640.34L1558.09 387.06" stroke="#132e65" stroke-width="1.5"></path><path d="M1558.9 640.34L1252.94 691.21" stroke="#132e65" stroke-width="1.5"></path><circle r="5" cx="-58.43" cy="339.72" fill="#132e65"></circle><circle r="5" cx="-66.24" cy="532.12" fill="#132e65"></circle><circle r="5" cx="-53.43" cy="689.66" fill="#132e65"></circle><circle r="5" cx="74.23" cy="380.18" fill="#132e65"></circle><circle r="5" cx="46.78" cy="487.82" fill="#132e65"></circle><circle r="5" cx="68.77" cy="691.51" fill="#132e65"></circle><circle r="5" cx="202.65" cy="394.25" fill="#132e65"></circle><circle r="5" cx="253.86" cy="532.48" fill="#132e65"></circle><circle r="5" cx="260.01" cy="709.01" fill="#132e65"></circle><circle r="5" cx="380.47" cy="376.01" fill="#132e65"></circle><circle r="5" cx="391.01" cy="499.19" fill="#132e65"></circle><circle r="5" cx="384.59" cy="646.23" fill="#132e65"></circle><circle r="5" cx="499.84" cy="366.24" fill="#132e65"></circle><circle r="5" cx="531.14" cy="504.57" fill="#132e65"></circle><circle r="5" cx="659.49" cy="229.69" fill="#132e65"></circle><circle r="5" cx="678.57" cy="386.63" fill="#132e65"></circle><circle r="5" cx="676.61" cy="537.66" fill="#132e65"></circle><circle r="5" cx="684.71" cy="642.62" fill="#132e65"></circle><circle r="5" cx="843" cy="103.37" fill="#132e65"></circle><circle r="5" cx="861.39" cy="226.89" fill="#132e65"></circle><circle r="5" cx="856.97" cy="379.53" fill="#132e65"></circle><circle r="5" cx="800.32" cy="509.67" fill="#132e65"></circle><circle r="5" cx="843.19" cy="672.75" fill="#132e65"></circle><circle r="5" cx="967.28" cy="-110.62" fill="#132e65"></circle><circle r="5" cx="955.36" cy="61.56" fill="#132e65"></circle><circle r="5" cx="1001.77" cy="219.07" fill="#132e65"></circle><circle r="5" cx="976.29" cy="383.62" fill="#132e65"></circle><circle r="5" cx="949.79" cy="489.56" fill="#132e65"></circle><circle r="5" cx="963.42" cy="661.86" fill="#132e65"></circle><circle r="5" cx="1144.95" cy="83.13" fill="#132e65"></circle><circle r="5" cx="1129.35" cy="231.46" fill="#132e65"></circle><circle r="5" cx="1104.55" cy="352.17" fill="#132e65"></circle><circle r="5" cx="1119.02" cy="523.93" fill="#132e65"></circle><circle r="5" cx="1149.9" cy="701.89" fill="#132e65"></circle><circle r="5" cx="1303.7" cy="-92.22" fill="#132e65"></circle><circle r="5" cx="1281.8" cy="42.78" fill="#132e65"></circle><circle r="5" cx="1310.7" cy="259.07" fill="#132e65"></circle><circle r="5" cx="1307.3" cy="342.52" fill="#132e65"></circle><circle r="5" cx="1239.61" cy="533.85" fill="#132e65"></circle><circle r="5" cx="1252.94" cy="691.21" fill="#132e65"></circle><circle r="5" cx="1435.06" cy="-74.73" fill="#132e65"></circle><circle r="5" cx="1394.82" cy="105.7" fill="#132e65"></circle><circle r="5" cx="1427.74" cy="230.14" fill="#132e65"></circle><circle r="5" cx="1423.78" cy="339.23" fill="#132e65"></circle><circle r="5" cx="1442.55" cy="523.44" fill="#132e65"></circle><circle r="5" cx="1452.83" cy="668.43" fill="#132e65"></circle><circle r="5" cx="1543.55" cy="-97.26" fill="#132e65"></circle><circle r="5" cx="1580.35" cy="61.03" fill="#132e65"></circle><circle r="5" cx="1558.09" cy="387.06" fill="#132e65"></circle><circle r="5" cx="1561.53" cy="550.27" fill="#132e65"></circle><circle r="5" cx="1558.9" cy="640.34" fill="#132e65"></circle><path d="M64.83 520.12L64.83 520.12" stroke="hsl(228.5, 77.2%, 51.5%)" stroke-width="1.5"></path><path d="M64.83 520.12L-95.43 547.74" stroke="hsl(228.5, 77.2%, 51.5%)" stroke-width="1.5"></path><path d="M64.83 520.12L233.11 510.02" stroke="hsl(228.5, 77.2%, 51.5%)" stroke-width="1.5"></path><path d="M64.83 520.12L110.04 702.29" stroke="hsl(228.5, 77.2%, 51.5%)" stroke-width="1.5"></path><path d="M506.3 665.31L506.3 665.31" stroke="hsl(228.5, 77.2%, 51.5%)" stroke-width="1.5"></path><path d="M506.3 665.31L538.98 553.8" stroke="hsl(228.5, 77.2%, 51.5%)" stroke-width="1.5"></path><path d="M506.3 665.31L350.78 650.46" stroke="hsl(228.5, 77.2%, 51.5%)" stroke-width="1.5"></path><path d="M702.51 381.7L702.51 381.7" stroke="hsl(228.5, 77.2%, 51.5%)" stroke-width="1.5"></path><path d="M702.51 381.7L848.94 384.21" stroke="hsl(228.5, 77.2%, 51.5%)" stroke-width="1.5"></path><path d="M702.51 381.7L705.78 540.68" stroke="hsl(228.5, 77.2%, 51.5%)" stroke-width="1.5"></path><path d="M702.51 381.7L856.66 520.9" stroke="hsl(228.5, 77.2%, 51.5%)" stroke-width="1.5"></path><path d="M702.51 381.7L538.98 553.8" stroke="hsl(228.5, 77.2%, 51.5%)" stroke-width="1.5"></path><path d="M702.51 381.7L685.39 666.91" stroke="hsl(228.5, 77.2%, 51.5%)" stroke-width="1.5"></path><path d="M702.51 381.7L1000.31 409.15" stroke="hsl(228.5, 77.2%, 51.5%)" stroke-width="1.5"></path><path d="M685.39 666.91L685.39 666.91" stroke="hsl(228.5, 77.2%, 51.5%)" stroke-width="1.5"></path><path d="M685.39 666.91L793.84 683.25" stroke="hsl(228.5, 77.2%, 51.5%)" stroke-width="1.5"></path><path d="M685.39 666.91L705.78 540.68" stroke="hsl(228.5, 77.2%, 51.5%)" stroke-width="1.5"></path><path d="M685.39 666.91L506.3 665.31" stroke="hsl(228.5, 77.2%, 51.5%)" stroke-width="1.5"></path><path d="M685.39 666.91L538.98 553.8" stroke="hsl(228.5, 77.2%, 51.5%)" stroke-width="1.5"></path><path d="M685.39 666.91L856.66 520.9" stroke="hsl(228.5, 77.2%, 51.5%)" stroke-width="1.5"></path><path d="M848.94 384.21L848.94 384.21" stroke="hsl(228.5, 77.2%, 51.5%)" stroke-width="1.5"></path><path d="M848.94 384.21L856.66 520.9" stroke="hsl(228.5, 77.2%, 51.5%)" stroke-width="1.5"></path><path d="M848.94 384.21L1000.31 409.15" stroke="hsl(228.5, 77.2%, 51.5%)" stroke-width="1.5"></path><path d="M856.66 520.9L856.66 520.9" stroke="hsl(228.5, 77.2%, 51.5%)" stroke-width="1.5"></path><path d="M856.66 520.9L956.83 554.45" stroke="hsl(228.5, 77.2%, 51.5%)" stroke-width="1.5"></path><path d="M856.66 520.9L705.78 540.68" stroke="hsl(228.5, 77.2%, 51.5%)" stroke-width="1.5"></path><path d="M856.66 520.9L793.84 683.25" stroke="hsl(228.5, 77.2%, 51.5%)" stroke-width="1.5"></path><path d="M856.66 520.9L1000.31 409.15" stroke="hsl(228.5, 77.2%, 51.5%)" stroke-width="1.5"></path><path d="M1001.52 707.69L1001.52 707.69" stroke="hsl(228.5, 77.2%, 51.5%)" stroke-width="1.5"></path><path d="M1001.52 707.69L1150.71 711.05" stroke="hsl(228.5, 77.2%, 51.5%)" stroke-width="1.5"></path><path d="M1001.52 707.69L956.83 554.45" stroke="hsl(228.5, 77.2%, 51.5%)" stroke-width="1.5"></path><path d="M1156.17 212.97L1156.17 212.97" stroke="hsl(228.5, 77.2%, 51.5%)" stroke-width="1.5"></path><path d="M1156.17 212.97L1292.9 239.88" stroke="hsl(228.5, 77.2%, 51.5%)" stroke-width="1.5"></path><path d="M1156.17 212.97L1275.33 80.83" stroke="hsl(228.5, 77.2%, 51.5%)" stroke-width="1.5"></path><path d="M1156.17 212.97L1148.12 395.98" stroke="hsl(228.5, 77.2%, 51.5%)" stroke-width="1.5"></path><path d="M1156.17 212.97L1237.51 380" stroke="hsl(228.5, 77.2%, 51.5%)" stroke-width="1.5"></path><path d="M1156.17 212.97L1000.31 409.15" stroke="hsl(228.5, 77.2%, 51.5%)" stroke-width="1.5"></path><path d="M1145.62 521.11L1145.62 521.11" stroke="hsl(228.5, 77.2%, 51.5%)" stroke-width="1.5"></path><path d="M1145.62 521.11L1252.98 537.06" stroke="hsl(228.5, 77.2%, 51.5%)" stroke-width="1.5"></path><path d="M1145.62 521.11L1148.12 395.98" stroke="hsl(228.5, 77.2%, 51.5%)" stroke-width="1.5"></path><path d="M1145.62 521.11L1237.51 380" stroke="hsl(228.5, 77.2%, 51.5%)" stroke-width="1.5"></path><path d="M1145.62 521.11L1000.31 409.15" stroke="hsl(228.5, 77.2%, 51.5%)" stroke-width="1.5"></path><path d="M1145.62 521.11L1277.05 658.27" stroke="hsl(228.5, 77.2%, 51.5%)" stroke-width="1.5"></path><path d="M1438.2 258.58L1438.2 258.58" stroke="hsl(228.5, 77.2%, 51.5%)" stroke-width="1.5"></path><path d="M1438.2 258.58L1447.87 372.25" stroke="hsl(228.5, 77.2%, 51.5%)" stroke-width="1.5"></path><path d="M1438.2 258.58L1539.87 204.77" stroke="hsl(228.5, 77.2%, 51.5%)" stroke-width="1.5"></path><path d="M1438.2 258.58L1292.9 239.88" stroke="hsl(228.5, 77.2%, 51.5%)" stroke-width="1.5"></path><path d="M1438.2 258.58L1442.06 76.51" stroke="hsl(228.5, 77.2%, 51.5%)" stroke-width="1.5"></path><path d="M-95.43 547.74L-95.43 547.74" stroke="hsl(228.5, 77.2%, 51.5%)" stroke-width="1.5"></path><path d="M-95.43 547.74L-67.6 704.38" stroke="hsl(228.5, 77.2%, 51.5%)" stroke-width="1.5"></path><path d="M-95.43 547.74L110.04 702.29" stroke="hsl(228.5, 77.2%, 51.5%)" stroke-width="1.5"></path><path d="M-95.43 547.74L233.11 510.02" stroke="hsl(228.5, 77.2%, 51.5%)" stroke-width="1.5"></path><path d="M-67.6 704.38L-67.6 704.38" stroke="hsl(228.5, 77.2%, 51.5%)" stroke-width="1.5"></path><path d="M110.04 702.29L110.04 702.29" stroke="hsl(228.5, 77.2%, 51.5%)" stroke-width="1.5"></path><path d="M110.04 702.29L194.96 709.56" stroke="hsl(228.5, 77.2%, 51.5%)" stroke-width="1.5"></path><path d="M110.04 702.29L-67.6 704.38" stroke="hsl(228.5, 77.2%, 51.5%)" stroke-width="1.5"></path><path d="M110.04 702.29L233.11 510.02" stroke="hsl(228.5, 77.2%, 51.5%)" stroke-width="1.5"></path><path d="M233.11 510.02L233.11 510.02" stroke="hsl(228.5, 77.2%, 51.5%)" stroke-width="1.5"></path><path d="M233.11 510.02L367.35 524.57" stroke="hsl(228.5, 77.2%, 51.5%)" stroke-width="1.5"></path><path d="M194.96 709.56L194.96 709.56" stroke="hsl(228.5, 77.2%, 51.5%)" stroke-width="1.5"></path><path d="M194.96 709.56L350.78 650.46" stroke="hsl(228.5, 77.2%, 51.5%)" stroke-width="1.5"></path><path d="M367.35 524.57L367.35 524.57" stroke="hsl(228.5, 77.2%, 51.5%)" stroke-width="1.5"></path><path d="M367.35 524.57L350.78 650.46" stroke="hsl(228.5, 77.2%, 51.5%)" stroke-width="1.5"></path><path d="M367.35 524.57L538.98 553.8" stroke="hsl(228.5, 77.2%, 51.5%)" stroke-width="1.5"></path><path d="M367.35 524.57L506.3 665.31" stroke="hsl(228.5, 77.2%, 51.5%)" stroke-width="1.5"></path><path d="M367.35 524.57L194.96 709.56" stroke="hsl(228.5, 77.2%, 51.5%)" stroke-width="1.5"></path><path d="M350.78 650.46L350.78 650.46" stroke="hsl(228.5, 77.2%, 51.5%)" stroke-width="1.5"></path><path d="M538.98 553.8L538.98 553.8" stroke="hsl(228.5, 77.2%, 51.5%)" stroke-width="1.5"></path><path d="M538.98 553.8L705.78 540.68" stroke="hsl(228.5, 77.2%, 51.5%)" stroke-width="1.5"></path><path d="M538.98 553.8L350.78 650.46" stroke="hsl(228.5, 77.2%, 51.5%)" stroke-width="1.5"></path><path d="M705.78 540.68L705.78 540.68" stroke="hsl(228.5, 77.2%, 51.5%)" stroke-width="1.5"></path><path d="M793.84 683.25L793.84 683.25" stroke="hsl(228.5, 77.2%, 51.5%)" stroke-width="1.5"></path><path d="M793.84 683.25L705.78 540.68" stroke="hsl(228.5, 77.2%, 51.5%)" stroke-width="1.5"></path><path d="M793.84 683.25L956.83 554.45" stroke="hsl(228.5, 77.2%, 51.5%)" stroke-width="1.5"></path><path d="M793.84 683.25L1001.52 707.69" stroke="hsl(228.5, 77.2%, 51.5%)" stroke-width="1.5"></path><path d="M793.84 683.25L538.98 553.8" stroke="hsl(228.5, 77.2%, 51.5%)" stroke-width="1.5"></path><path d="M1000.31 409.15L1000.31 409.15" stroke="hsl(228.5, 77.2%, 51.5%)" stroke-width="1.5"></path><path d="M1000.31 409.15L1148.12 395.98" stroke="hsl(228.5, 77.2%, 51.5%)" stroke-width="1.5"></path><path d="M1000.31 409.15L956.83 554.45" stroke="hsl(228.5, 77.2%, 51.5%)" stroke-width="1.5"></path><path d="M956.83 554.45L956.83 554.45" stroke="hsl(228.5, 77.2%, 51.5%)" stroke-width="1.5"></path><path d="M1152.21 -95.38L1152.21 -95.38" stroke="hsl(228.5, 77.2%, 51.5%)" stroke-width="1.5"></path><path d="M1152.21 -95.38L1289.42 -38.87" stroke="hsl(228.5, 77.2%, 51.5%)" stroke-width="1.5"></path><path d="M1152.21 -95.38L1275.33 80.83" stroke="hsl(228.5, 77.2%, 51.5%)" stroke-width="1.5"></path><path d="M1152.21 -95.38L1448.03 -69.97" stroke="hsl(228.5, 77.2%, 51.5%)" stroke-width="1.5"></path><path d="M1152.21 -95.38L1156.17 212.97" stroke="hsl(228.5, 77.2%, 51.5%)" stroke-width="1.5"></path><path d="M1152.21 -95.38L1442.06 76.51" stroke="hsl(228.5, 77.2%, 51.5%)" stroke-width="1.5"></path><path d="M1152.21 -95.38L1292.9 239.88" stroke="hsl(228.5, 77.2%, 51.5%)" stroke-width="1.5"></path><path d="M1148.12 395.98L1148.12 395.98" stroke="hsl(228.5, 77.2%, 51.5%)" stroke-width="1.5"></path><path d="M1148.12 395.98L1237.51 380" stroke="hsl(228.5, 77.2%, 51.5%)" stroke-width="1.5"></path><path d="M1148.12 395.98L1252.98 537.06" stroke="hsl(228.5, 77.2%, 51.5%)" stroke-width="1.5"></path><path d="M1150.71 711.05L1150.71 711.05" stroke="hsl(228.5, 77.2%, 51.5%)" stroke-width="1.5"></path><path d="M1150.71 711.05L1277.05 658.27" stroke="hsl(228.5, 77.2%, 51.5%)" stroke-width="1.5"></path><path d="M1150.71 711.05L1145.62 521.11" stroke="hsl(228.5, 77.2%, 51.5%)" stroke-width="1.5"></path><path d="M1289.42 -38.87L1289.42 -38.87" stroke="hsl(228.5, 77.2%, 51.5%)" stroke-width="1.5"></path><path d="M1289.42 -38.87L1275.33 80.83" stroke="hsl(228.5, 77.2%, 51.5%)" stroke-width="1.5"></path><path d="M1289.42 -38.87L1448.03 -69.97" stroke="hsl(228.5, 77.2%, 51.5%)" stroke-width="1.5"></path><path d="M1289.42 -38.87L1442.06 76.51" stroke="hsl(228.5, 77.2%, 51.5%)" stroke-width="1.5"></path><path d="M1289.42 -38.87L1292.9 239.88" stroke="hsl(228.5, 77.2%, 51.5%)" stroke-width="1.5"></path><path d="M1289.42 -38.87L1156.17 212.97" stroke="hsl(228.5, 77.2%, 51.5%)" stroke-width="1.5"></path><path d="M1275.33 80.83L1275.33 80.83" stroke="hsl(228.5, 77.2%, 51.5%)" stroke-width="1.5"></path><path d="M1275.33 80.83L1292.9 239.88" stroke="hsl(228.5, 77.2%, 51.5%)" stroke-width="1.5"></path><path d="M1275.33 80.83L1442.06 76.51" stroke="hsl(228.5, 77.2%, 51.5%)" stroke-width="1.5"></path><path d="M1292.9 239.88L1292.9 239.88" stroke="hsl(228.5, 77.2%, 51.5%)" stroke-width="1.5"></path><path d="M1292.9 239.88L1237.51 380" stroke="hsl(228.5, 77.2%, 51.5%)" stroke-width="1.5"></path><path d="M1292.9 239.88L1447.87 372.25" stroke="hsl(228.5, 77.2%, 51.5%)" stroke-width="1.5"></path><path d="M1237.51 380L1237.51 380" stroke="hsl(228.5, 77.2%, 51.5%)" stroke-width="1.5"></path><path d="M1252.98 537.06L1252.98 537.06" stroke="hsl(228.5, 77.2%, 51.5%)" stroke-width="1.5"></path><path d="M1252.98 537.06L1277.05 658.27" stroke="hsl(228.5, 77.2%, 51.5%)" stroke-width="1.5"></path><path d="M1252.98 537.06L1237.51 380" stroke="hsl(228.5, 77.2%, 51.5%)" stroke-width="1.5"></path><path d="M1252.98 537.06L1418.16 516.35" stroke="hsl(228.5, 77.2%, 51.5%)" stroke-width="1.5"></path><path d="M1277.05 658.27L1277.05 658.27" stroke="hsl(228.5, 77.2%, 51.5%)" stroke-width="1.5"></path><path d="M1277.05 658.27L1446.8 699.87" stroke="hsl(228.5, 77.2%, 51.5%)" stroke-width="1.5"></path><path d="M1277.05 658.27L1418.16 516.35" stroke="hsl(228.5, 77.2%, 51.5%)" stroke-width="1.5"></path><path d="M1448.03 -69.97L1448.03 -69.97" stroke="hsl(228.5, 77.2%, 51.5%)" stroke-width="1.5"></path><path d="M1448.03 -69.97L1576.37 -101.52" stroke="hsl(228.5, 77.2%, 51.5%)" stroke-width="1.5"></path><path d="M1448.03 -69.97L1442.06 76.51" stroke="hsl(228.5, 77.2%, 51.5%)" stroke-width="1.5"></path><path d="M1448.03 -69.97L1569.82 107.17" stroke="hsl(228.5, 77.2%, 51.5%)" stroke-width="1.5"></path><path d="M1448.03 -69.97L1275.33 80.83" stroke="hsl(228.5, 77.2%, 51.5%)" stroke-width="1.5"></path><path d="M1448.03 -69.97L1539.87 204.77" stroke="hsl(228.5, 77.2%, 51.5%)" stroke-width="1.5"></path><path d="M1442.06 76.51L1442.06 76.51" stroke="hsl(228.5, 77.2%, 51.5%)" stroke-width="1.5"></path><path d="M1442.06 76.51L1569.82 107.17" stroke="hsl(228.5, 77.2%, 51.5%)" stroke-width="1.5"></path><path d="M1442.06 76.51L1539.87 204.77" stroke="hsl(228.5, 77.2%, 51.5%)" stroke-width="1.5"></path><path d="M1447.87 372.25L1447.87 372.25" stroke="hsl(228.5, 77.2%, 51.5%)" stroke-width="1.5"></path><path d="M1447.87 372.25L1418.16 516.35" stroke="hsl(228.5, 77.2%, 51.5%)" stroke-width="1.5"></path><path d="M1447.87 372.25L1584.28 489.94" stroke="hsl(228.5, 77.2%, 51.5%)" stroke-width="1.5"></path><path d="M1447.87 372.25L1539.87 204.77" stroke="hsl(228.5, 77.2%, 51.5%)" stroke-width="1.5"></path><path d="M1418.16 516.35L1418.16 516.35" stroke="hsl(228.5, 77.2%, 51.5%)" stroke-width="1.5"></path><path d="M1418.16 516.35L1584.28 489.94" stroke="hsl(228.5, 77.2%, 51.5%)" stroke-width="1.5"></path><path d="M1418.16 516.35L1446.8 699.87" stroke="hsl(228.5, 77.2%, 51.5%)" stroke-width="1.5"></path><path d="M1446.8 699.87L1446.8 699.87" stroke="hsl(228.5, 77.2%, 51.5%)" stroke-width="1.5"></path><path d="M1446.8 699.87L1564.76 652.65" stroke="hsl(228.5, 77.2%, 51.5%)" stroke-width="1.5"></path><path d="M1576.37 -101.52L1576.37 -101.52" stroke="hsl(228.5, 77.2%, 51.5%)" stroke-width="1.5"></path><path d="M1569.82 107.17L1569.82 107.17" stroke="hsl(228.5, 77.2%, 51.5%)" stroke-width="1.5"></path><path d="M1569.82 107.17L1539.87 204.77" stroke="hsl(228.5, 77.2%, 51.5%)" stroke-width="1.5"></path><path d="M1539.87 204.77L1539.87 204.77" stroke="hsl(228.5, 77.2%, 51.5%)" stroke-width="1.5"></path><path d="M1584.28 489.94L1584.28 489.94" stroke="hsl(228.5, 77.2%, 51.5%)" stroke-width="1.5"></path><path d="M1584.28 489.94L1564.76 652.65" stroke="hsl(228.5, 77.2%, 51.5%)" stroke-width="1.5"></path><path d="M1564.76 652.65L1564.76 652.65" stroke="hsl(228.5, 77.2%, 51.5%)" stroke-width="1.5"></path><path d="M1564.76 652.65L1418.16 516.35" stroke="hsl(228.5, 77.2%, 51.5%)" stroke-width="1.5"></path><path d="M1564.76 652.65L1277.05 658.27" stroke="hsl(228.5, 77.2%, 51.5%)" stroke-width="1.5"></path><path d="M1564.76 652.65L1447.87 372.25" stroke="hsl(228.5, 77.2%, 51.5%)" stroke-width="1.5"></path><circle r="25" cx="64.83" cy="520.12" fill="url(#SvgjsRadialGradient1001)"></circle><circle r="25" cx="506.3" cy="665.31" fill="url(#SvgjsRadialGradient1001)"></circle><circle r="25" cx="702.51" cy="381.7" fill="url(#SvgjsRadialGradient1001)"></circle><circle r="25" cx="685.39" cy="666.91" fill="url(#SvgjsRadialGradient1001)"></circle><circle r="25" cx="848.94" cy="384.21" fill="url(#SvgjsRadialGradient1001)"></circle><circle r="25" cx="856.66" cy="520.9" fill="url(#SvgjsRadialGradient1001)"></circle><circle r="25" cx="1001.52" cy="707.69" fill="url(#SvgjsRadialGradient1001)"></circle><circle r="25" cx="1156.17" cy="212.97" fill="url(#SvgjsRadialGradient1001)"></circle><circle r="25" cx="1145.62" cy="521.11" fill="url(#SvgjsRadialGradient1001)"></circle><circle r="25" cx="1438.2" cy="258.58" fill="url(#SvgjsRadialGradient1001)"></circle><circle r="5" cx="-95.43" cy="547.74" fill="#8b9ad9"></circle><circle r="5" cx="-67.6" cy="704.38" fill="#8b9ad9"></circle><circle r="5" cx="110.04" cy="702.29" fill="#8b9ad9"></circle><circle r="5" cx="233.11" cy="510.02" fill="#8b9ad9"></circle><circle r="5" cx="194.96" cy="709.56" fill="#8b9ad9"></circle><circle r="5" cx="367.35" cy="524.57" fill="#8b9ad9"></circle><circle r="5" cx="350.78" cy="650.46" fill="#8b9ad9"></circle><circle r="5" cx="538.98" cy="553.8" fill="#8b9ad9"></circle><circle r="5" cx="705.78" cy="540.68" fill="#8b9ad9"></circle><circle r="5" cx="793.84" cy="683.25" fill="#8b9ad9"></circle><circle r="5" cx="1000.31" cy="409.15" fill="#8b9ad9"></circle><circle r="5" cx="956.83" cy="554.45" fill="#8b9ad9"></circle><circle r="5" cx="1152.21" cy="-95.38" fill="#8b9ad9"></circle><circle r="5" cx="1148.12" cy="395.98" fill="#8b9ad9"></circle><circle r="5" cx="1150.71" cy="711.05" fill="#8b9ad9"></circle><circle r="5" cx="1289.42" cy="-38.87" fill="#8b9ad9"></circle><circle r="5" cx="1275.33" cy="80.83" fill="#8b9ad9"></circle><circle r="5" cx="1292.9" cy="239.88" fill="#8b9ad9"></circle><circle r="5" cx="1237.51" cy="380" fill="#8b9ad9"></circle><circle r="5" cx="1252.98" cy="537.06" fill="#8b9ad9"></circle><circle r="5" cx="1277.05" cy="658.27" fill="#8b9ad9"></circle><circle r="5" cx="1448.03" cy="-69.97" fill="#8b9ad9"></circle><circle r="5" cx="1442.06" cy="76.51" fill="#8b9ad9"></circle><circle r="5" cx="1447.87" cy="372.25" fill="#8b9ad9"></circle><circle r="5" cx="1418.16" cy="516.35" fill="#8b9ad9"></circle><circle r="5" cx="1446.8" cy="699.87" fill="#8b9ad9"></circle><circle r="5" cx="1576.37" cy="-101.52" fill="#8b9ad9"></circle><circle r="5" cx="1569.82" cy="107.17" fill="#8b9ad9"></circle><circle r="5" cx="1539.87" cy="204.77" fill="#8b9ad9"></circle><circle r="5" cx="1584.28" cy="489.94" fill="#8b9ad9"></circle><circle r="5" cx="1564.76" cy="652.65" fill="#8b9ad9"></circle></g><defs><mask id="SvgjsMask1000"><rect width="1440" height="560" fill="#ffffff"></rect></mask><radialGradient id="SvgjsRadialGradient1001"><stop stop-color="#ffffff" offset="0.1"></stop><stop stop-color="#1735b3" offset="0.2"></stop><stop stop-color="rgba(23, 53, 179, 0)" offset="1"></stop></radialGradient></defs></svg>