<svg xmlns="http://www.w3.org/2000/svg" version="1.1" xmlns:xlink="http://www.w3.org/1999/xlink" xmlns:svgjs="http://svgjs.com/svgjs" width="1440" height="250" preserveAspectRatio="none" viewBox="0 0 1440 250"><g mask="url(&quot;#SvgjsMask1000&quot;)" fill="none"><rect width="1440" height="250" x="0" y="0" fill="#0e2a47"></rect><path d="M34 250L284 0L497 0L247 250z" fill="url(#SvgjsLinearGradient1001)"></path><path d="M263.6 250L513.6 0L608.1 0L358.1 250z" fill="url(#SvgjsLinearGradient1001)"></path><path d="M519.2 250L769.2 0L1103.7 0L853.7 250z" fill="url(#SvgjsLinearGradient1001)"></path><path d="M733.8000000000001 250L983.8000000000001 0L1145.8000000000002 0L895.8000000000001 250z" fill="url(#SvgjsLinearGradient1001)"></path><path d="M1403 250L1153 0L944.5 0L1194.5 250z" fill="url(#SvgjsLinearGradient1002)"></path><path d="M1182.4 250L932.4000000000001 0L815.4000000000001 0L1065.4 250z" fill="url(#SvgjsLinearGradient1002)"></path><path d="M941.8 250L691.8 0L622.8 0L872.8 250z" fill="url(#SvgjsLinearGradient1002)"></path><path d="M697.1999999999999 250L447.19999999999993 0L385.69999999999993 0L635.6999999999999 250z" fill="url(#SvgjsLinearGradient1002)"></path><path d="M1273.7332328425373 250L1440 83.73323284253726L1440 250z" fill="url(#SvgjsLinearGradient1001)"></path><path d="M0 250L166.26676715746274 250L 0 83.73323284253726z" fill="url(#SvgjsLinearGradient1002)"></path></g><defs><mask id="SvgjsMask1000"><rect width="1440" height="250" fill="#ffffff"></rect></mask><linearGradient x1="0%" y1="100%" x2="100%" y2="0%" id="SvgjsLinearGradient1001"><stop stop-color="rgba(15, 70, 185, 0.2)" offset="0"></stop><stop stop-opacity="0" stop-color="rgba(15, 70, 185, 0.2)" offset="0.66"></stop></linearGradient><linearGradient x1="100%" y1="100%" x2="0%" y2="0%" id="SvgjsLinearGradient1002"><stop stop-color="rgba(15, 70, 185, 0.2)" offset="0"></stop><stop stop-opacity="0" stop-color="rgba(15, 70, 185, 0.2)" offset="0.66"></stop></linearGradient></defs></svg>