<svg xmlns="http://www.w3.org/2000/svg" version="1.1" xmlns:xlink="http://www.w3.org/1999/xlink" xmlns:svgjs="http://svgjs.com/svgjs" width="1440" height="560" preserveAspectRatio="none" viewBox="0 0 1440 560"><g mask="url(&quot;#SvgjsMask1002&quot;)" fill="none"><rect width="1440" height="560" x="0" y="0" fill="url(#SvgjsLinearGradient1003)"></rect><path d="M1440 0L734.26 0L1440 72.1z" fill="rgba(255, 255, 255, .1)"></path><path d="M734.26 0L1440 72.1L1440 78.13L495.57 0z" fill="rgba(255, 255, 255, .075)"></path><path d="M495.56999999999994 0L1440 78.13L1440 137.66L294.9 0z" fill="rgba(255, 255, 255, .05)"></path><path d="M294.89999999999986 0L1440 137.66L1440 412.23L264.98999999999984 0z" fill="rgba(255, 255, 255, .025)"></path><path d="M0 560L139.77 560L0 510.32z" fill="rgba(0, 0, 0, .1)"></path><path d="M0 510.32L139.77 560L720.53 560L0 377.25z" fill="rgba(0, 0, 0, .075)"></path><path d="M0 377.25L720.53 560L1006.43 560L0 367.92z" fill="rgba(0, 0, 0, .05)"></path><path d="M0 367.91999999999996L1006.43 560L1058.1499999999999 560L0 358.86999999999995z" fill="rgba(0, 0, 0, .025)"></path></g><defs><mask id="SvgjsMask1002"><rect width="1440" height="560" fill="#ffffff"></rect></mask><linearGradient x1="15.28%" y1="-39.29%" x2="84.72%" y2="139.29%" gradientUnits="userSpaceOnUse" id="SvgjsLinearGradient1003"><stop stop-color="#0e2a47" offset="0"></stop><stop stop-color="#00459e" offset="1"></stop></linearGradient></defs></svg>