<svg xmlns="http://www.w3.org/2000/svg" version="1.1" xmlns:xlink="http://www.w3.org/1999/xlink" xmlns:svgjs="http://svgjs.com/svgjs" width="1440" height="560" preserveAspectRatio="none" viewBox="0 0 1440 560"><g mask="url(&quot;#SvgjsMask1000&quot;)" fill="none"><rect width="1440" height="560" x="0" y="0" fill="#0e2a47"></rect><circle r="5.565" cx="674.985" cy="437.865" filter="url(#SvgjsFilter1001)" fill="rgba(51, 121, 194, 0.58)"></circle><circle r="8.09" cx="1343.1299999999999" cy="471.59" filter="url(#SvgjsFilter1001)" fill="rgba(51, 121, 194, 0.58)"></circle><circle r="5.66" cx="27.39" cy="69.86" filter="url(#SvgjsFilter1001)" fill="rgba(51, 121, 194, 0.58)"></circle><circle r="6.825" cx="582.495" cy="448.695" filter="url(#SvgjsFilter1001)" fill="rgba(51, 121, 194, 0.58)"></circle><circle r="6.635" cx="1367.655" cy="51.254999999999995" filter="url(#SvgjsFilter1001)" fill="rgba(51, 121, 194, 0.58)"></circle><circle r="8.985" cx="192.39499999999998" cy="97.505" filter="url(#SvgjsFilter1001)" fill="rgba(51, 121, 194, 0.58)"></circle><circle r="6.805" cx="1088.395" cy="328.755" filter="url(#SvgjsFilter1001)" fill="rgba(51, 121, 194, 0.58)"></circle><circle r="8.255" cx="968.755" cy="272.505" filter="url(#SvgjsFilter1001)" fill="rgba(51, 121, 194, 0.58)"></circle><circle r="6.305" cx="398.945" cy="230.38500000000002" filter="url(#SvgjsFilter1001)" fill="rgba(51, 121, 194, 0.58)"></circle><circle r="5.505" cx="472.245" cy="195.495" filter="url(#SvgjsFilter1001)" fill="rgba(51, 121, 194, 0.58)"></circle><circle r="8.065" cx="692.0550000000001" cy="362.205" filter="url(#SvgjsFilter1001)" fill="rgba(51, 121, 194, 0.58)"></circle><circle r="6.14" cx="796.09" cy="90.34" filter="url(#SvgjsFilter1001)" fill="rgba(51, 121, 194, 0.58)"></circle><circle r="8.07" cx="1211.3899999999999" cy="206.72" filter="url(#SvgjsFilter1001)" fill="rgba(51, 121, 194, 0.58)"></circle><circle r="8.11" cx="639.04" cy="72.78" filter="url(#SvgjsFilter1001)" fill="rgba(51, 121, 194, 0.58)"></circle><circle r="8.88" cx="428.26" cy="488.27" filter="url(#SvgjsFilter1001)" fill="rgba(51, 121, 194, 0.58)"></circle><circle r="8.82" cx="993.88" cy="499.07" filter="url(#SvgjsFilter1001)" fill="rgba(51, 121, 194, 0.58)"></circle><circle r="5.01" cx="294.46999999999997" cy="293.59" filter="url(#SvgjsFilter1001)" fill="rgba(51, 121, 194, 0.58)"></circle><circle r="8.265" cx="457.59499999999997" cy="97.905" filter="url(#SvgjsFilter1001)" fill="rgba(51, 121, 194, 0.58)"></circle><circle r="6.085" cx="148.07500000000002" cy="86.88499999999999" filter="url(#SvgjsFilter1001)" fill="rgba(51, 121, 194, 0.58)"></circle><circle r="5.235" cx="838.005" cy="191.82500000000002" filter="url(#SvgjsFilter1001)" fill="rgba(51, 121, 194, 0.58)"></circle><path d="M464.9 302.6L462.6 322.6 451.5 314.9C450.4 314 448.3 314.2 446.8 315.5 446.2 317.2 446.4 319.2 447.5 320.1L461.9 330.6 459.6 349.1 430.5 327.6C428.6 326.4 426.5 326.6 425.9 328.3 424.4 329.6 424.6 331.7 426.5 332.9L458.6 356.5 457 373.3 421.3 389.1 409.1 380.5 414.2 338.3C414 337.7 413.7 337.2 413.5 336.6 413.2 336 412.1 335.1 411.3 334.7 409 334.4 407.5 335.7 407.7 337.7L403 376.2 388.3 365.2 390.1 345.5C390.7 345.2 390.4 344.6 390.2 344.1 389.7 342.9 388.6 342 387.1 341.9 385.7 341.8 384.2 343.2 383.6 344.9L382.2 360.9 363.7 347.4C362.6 346.5 360.5 346.7 359 348 358.4 349.7 358.6 351.7 359.7 352.6L377.1 365.2 364.8 370.6C363.1 371.4 362.7 373.7 363.2 374.9 364 376.6 365.9 377.9 367.7 377.1L383.5 370.1 398.2 381.1 365.4 395.6C363.6 396.4 363 398.1 363.7 399.8 364.5 401.6 366.2 402.2 368 401.5L404.3 385.4 417.3 394.4 412.8 433.4 399.4 439.3 366.4 415.4C365.1 413.9 362.5 414.4 361.8 416.1 360.3 417.4 361.1 419.2 362.5 420.7L392.4 442.4 375.4 449.9 360.7 438.9C359.6 438 357 438.5 356.1 439.6S355.6 443.3 357 444.8L368.4 453 347.9 462.1C346.1 462.9 345.7 465.1 346.5 466.9 347 468.1 349 469.3 350.7 468.5L371.2 459.5 369.9 474C369.9 475.5 370.6 477.2 372.9 477.6 374.3 477.7 376.4 476.1 376.5 474.6L378.2 456.4 395.2 448.9 391.2 485.7C391.3 487.7 392.1 489.4 394.4 489.8 395.8 489.9 397.9 488.3 398 486.8L402.2 445.8 415.7 439.8 447.5 462.8 445.4 478.5 409.1 494.5C407.3 495.3 406.7 497 407.4 498.8 408.2 500.5 410.2 501.8 411.9 501L444.7 486.5 443 504.8 427.2 511.7C425.4 512.5 424.7 514.2 425.5 516 426.3 517.7 428 518.4 429.7 517.6L442 512.2 439.6 533.5C439.5 535 441.1 537 442.6 537.1 444.6 536.9 446.3 536.1 446.1 534.1L448.9 511.9 461.4 521.1C463.1 521.8 465.1 521.6 466 520.5 466.9 519.4 467 517.9 466.5 516.8 466.5 516.8 466.2 516.2 465.4 515.8L449.6 503.9 451.3 485.7 482.9 508.1C484.3 509.6 486.3 509.4 487.5 507.5 487.9 506.6 488.2 505.8 487.7 504.6 487.4 504 487.2 503.4 486.9 502.8L452.3 478.3 454.1 463.4 489.8 447.7 503.4 457.8 499.2 497.4C498.8 499.7 500.2 501.2 502.2 501 503.9 501.6 505.4 500.3 505.8 498L509.5 462.1 524.7 472.8 522.7 490.5C522.7 491.9 524 493.4 525.7 494.1 527.7 493.9 529.5 493.1 529.3 491.1L531.1 477.7 547.4 489.4C548.8 490.9 550.5 490.1 552 488.8 552.4 487.9 552.4 486.5 551.9 485.3 551.9 485.3 551.7 484.7 551.4 484.1L534 471.6 548.6 465.1C549.8 464.6 551 462.6 550.2 460.9 549.4 459.1 547.2 458.7 546 459.2L527.9 467.3 512.6 456.5 548.3 440.7C550.1 440 550.5 437.7 549.7 435.9S547.2 433.5 545.5 434.3L506.3 451.6 493.8 442.4 498.2 403.4 513.5 396.7 546.7 421.2C548.4 421.8 550.4 421.6 551.9 420.3 552.2 419.4 552.3 418 551.8 416.8 551.5 416.2 551.2 415.7 550.4 415.3L520.5 393.6 537.5 386.1 552.7 396.8C553.8 397.7 555.8 397.5 557.3 396.2 558 394.5 557.8 392.5 556.7 391.6L544.5 382.9 563.2 374.7C564.4 374.2 565.4 371.6 564.9 370.5 564.1 368.7 561.6 367.7 560.4 368.2L541.6 376.5 543.8 362.3C543.5 361.7 543.2 361.1 543 360.5 542.5 359.4 541.4 358.4 540.5 358.1 538.5 358.3 537 359.7 536.4 361.4L534.6 379.6 517.6 387.1 521.7 350.3C522.1 348.1 520.7 346.6 519.3 346.5 517 346.1 515.5 347.5 514.9 349.2L510.6 390.2 495.4 396.9 463.5 373.9 465.1 358.5 504.4 341.2C506.1 340.4 506.8 338.7 506 337 505.2 335.2 503.5 334.6 501.8 335.3L466.1 351.1 468.4 332.6 486.5 324.6C487.7 324.1 488.7 321.5 487.9 319.8 487.1 318 484.9 317.6 483.7 318.2L469.1 324.6 471.5 303.2C471.2 302.7 471.2 302.7 471 302.1 470.5 300.9 469.4 300 468.5 299.7 466.5 299.9 465 301.2 464.9 302.6ZM488.4 400L491.7 402.8 491.2 406.5 487.7 438.1 487.2 441.8 483.7 443.4 455 456 451.5 457.6 448.5 455.4 422.7 436.7 419.7 434.6 419.9 430.3 423.6 399.2 423.9 395 427.4 393.4 456.1 380.7 459.6 379.2 462.9 381.9 488.4 400Z" fill="rgba(51, 121, 194, 0.58)"></path><path d="M979.4 150.8L1022.8 181.4 1030.6 228.1 986.2 211.5 964.6 163C964.6 163 964.2 162.5 964.2 162.5 963.3 161.6 961.5 161.4 960.1 161.7 958.3 162.4 957.6 164.6 958.8 166.1L977.9 208.4 956.4 200.4 947.7 181.9C947.7 181.9 947.3 181.4 947.3 181.4 946.5 180.4 944.7 180.2 943.3 180.5 941.4 181.3 940.8 183.5 942 185L947.6 197.8 931.8 191.7C930.5 191.1 928.1 192.2 927.5 193.6 926.4 195.3 928.1 197.2 929.4 197.8L945.2 203.9 932.3 209.5C930.4 210.2 929.8 212.4 931 213.9 931.7 215.8 933.9 216.5 935.4 215.2L954 206.6 975 215 932.7 234.1C930.8 234.8 930.1 237 931.3 238.5 932.1 240.4 934.3 241 935.8 239.8L984.2 218.1 1028.6 234.7 991.5 265.2 938.3 260.1C936.5 259.9 935.1 261.1 934.9 262.9 934.7 264.7 935.9 266.2 937.7 266.4L984.6 270.9 966.8 285.6 947 283.6C945.2 283.5 943.7 284.7 943.5 286.5 943.3 288.3 944.6 289.8 946.4 290L959.9 291.3 946 302.7C944.2 303.4 944.4 305.7 945.6 307.2 946.8 308.6 948.6 308.8 950.1 307.6L963 297 961.7 310.5C961.5 312.3 962.7 313.8 964.5 314S967.8 312.9 968 311.1L969.9 291.3 987.7 276.7 983.1 323.5C983 325.3 984.2 326.8 986 327 987.8 327.2 989.3 325.9 989.4 324.1L994.6 271 1031.1 240.9 1038.9 287.5 1008.9 329.7C1007.8 331.4 1008.6 333.3 1009.8 334.7 1011.5 335.8 1013.4 335.1 1014.9 333.9L1041.7 296 1045.4 318.6 1033.4 335.2C1032.3 336.9 1033 338.8 1034.2 340.3 1036 341.4 1037.8 340.6 1038.8 339.8L1046.8 328.3 1049.7 345C1050 346.4 1051.7 348.3 1053.5 347.6 1055.4 346.9 1056.9 345.7 1056.2 343.8L1053.3 327.1 1064.8 335.1C1066.5 336.1 1068.4 335.4 1069.4 334.6 1069.9 333.3 1070.1 331.5 1069.3 330.5 1069.3 330.5 1068.9 330 1068.9 330L1052.3 317.9 1048.6 295.3 1086.5 322.2C1088.2 323.2 1090.1 322.5 1091.1 321.7 1091.6 320.4 1091.8 318.6 1091 317.6 1091 317.6 1090.6 317.1 1090.6 317.1L1047.2 286.5 1039.4 239.9 1083.7 256.4 1105.4 304.9C1106.1 306.8 1108.4 307.5 1109.8 306.2 1111.7 305.5 1112.4 303.3 1111.2 301.8L1092.1 259.5 1113.6 267.5 1122.2 286.1C1123 288 1125.2 288.6 1126.7 287.4 1128.6 286.7 1129.2 284.5 1128 283L1122.4 270.2 1138.2 276.2C1139.5 276.8 1141.9 275.7 1142.5 274.4 1143.1 273.1 1142.7 271.7 1141.9 270.7 1141.5 270.2 1141.1 269.7 1140.2 269.6L1124.4 263.5 1137.2 258C1139.1 257.2 1139.8 255 1138.6 253.5 1138.6 253.5 1138.2 253.1 1138.2 253.1 1137.4 252.1 1135.6 251.9 1134.2 252.2L1115.6 260.9 1094.1 252.9 1136.4 233.8C1138.3 233.1 1139 230.9 1137.7 229.4 1137.7 229.4 1137.3 228.9 1137.3 228.9 1136.5 227.9 1134.7 227.7 1133.3 228L1084.8 249.7 1040.5 233.1 1077.1 203 1130.2 208.2C1132 208.4 1133.5 207.1 1133.7 205.3 1133.9 203.5 1132.7 202.1 1130.9 201.9L1084.5 196.9 1102.3 182.3 1122.1 184.2C1123.9 184.4 1125.4 183.2 1125.6 181.4S1124.5 178.1 1122.7 177.9L1109.2 176.6 1122 166C1123.5 164.8 1123.7 163 1122.5 161.5 1121.3 160 1119.5 159.9 1118 161.1L1105.1 171.7 1106.4 158.1C1106.5 157.2 1106.6 156.3 1105.8 155.3S1104.1 154.3 1103.2 154.2C1101.4 154 1099.9 155.2 1099.7 157L1097.8 176.9 1080 191.5 1084.6 144.7C1084.6 143.8 1084.7 142.9 1083.9 141.9 1083.5 141.4 1082.2 140.8 1081.3 140.7 1079.5 140.5 1078 141.7 1077.8 143.5L1072.7 196.7 1036.1 226.8 1028.4 180.1 1059 136.7C1059.5 135.4 1059.7 133.6 1058.9 132.6 1058.9 132.6 1058.5 132.1 1058.5 132.1 1056.8 131.1 1054.9 131.8 1053.9 132.6L1027 170.5 1023.3 147.8 1035.4 131.3C1036 129.9 1036.1 128.1 1035.3 127.2 1035.3 127.2 1034.9 126.7 1034.9 126.7 1033.2 125.6 1031.3 126.3 1030.3 127.1L1022.4 138.6 1019.5 122C1019.1 121.5 1019.1 120.6 1018.7 120.1 1017.9 119.1 1016.6 118.5 1015.2 118.8 1013.3 119.6 1011.8 120.8 1012.6 122.7L1015.5 139.3 1004 131.4C1002.3 130.3 1000.4 131 999.4 131.9 998.3 133.6 999.1 135.5 999.9 136.5L1016.4 148.5 1020.2 171.2 982.3 144.3C980.6 143.2 978.7 144 977.7 144.8 977.4 147.5 977.7 149.8 979.4 150.8Z" fill="rgba(51, 121, 194, 0.58)"></path><path d="M626.1 298.7L628.8 286.4 635.2 291.9C635.9 292.6 637.1 292.6 638.2 291.8 638.7 290.8 638.7 289.6 638.1 288.9L629.8 281.5 632.4 270.1 649.1 285.4C650.2 286.3 651.5 286.3 652 285.3 653 284.5 653 283.3 651.9 282.4L633.5 265.6 635.6 255.2 658.8 247.8 665.9 253.9 659.9 279.8C660 280.2 660.2 280.5 660.3 280.9 660.4 281.3 661 281.9 661.5 282.2 662.9 282.6 663.9 281.8 663.9 280.6L669.4 257 677.8 264.8 675.4 276.9C675 277 675.1 277.4 675.2 277.8 675.5 278.6 676.1 279.2 677 279.3 677.9 279.5 678.9 278.7 679.4 277.7L681.3 267.9 691.9 277.5C692.6 278.1 693.8 278.1 694.8 277.4 695.4 276.4 695.4 275.1 694.8 274.5L684.7 265.5 692.7 262.9C693.9 262.6 694.3 261.2 694 260.4 693.6 259.3 692.5 258.4 691.4 258.7L681.1 262 672.7 254.2 694 247.4C695.2 247 695.7 246 695.3 244.9 694.9 243.7 693.9 243.2 692.8 243.6L669.2 251.2 661.7 244.8 667 220.8 675.7 218 694.7 235C695.4 236 697 235.9 697.6 234.9 698.6 234.1 698.2 233 697.5 232L680.3 216.5 691.3 212.9 699.7 220.7C700.4 221.4 702 221.3 702.6 220.6S703.2 218.4 702.4 217.4L695.9 211.5 709.2 207.2C710.4 206.8 710.8 205.4 710.4 204.3 710.2 203.5 709 202.6 707.9 203L694.6 207.3 696.3 198.3C696.4 197.4 696.1 196.3 694.7 195.9 693.8 195.8 692.4 196.6 692.3 197.5L690 208.8 679 212.3 683.9 189.7C683.9 188.4 683.5 187.3 682.1 186.9 681.2 186.8 679.8 187.6 679.7 188.5L674.4 213.8 665.6 216.6 647.3 200.2 649.7 190.6 673.3 183C674.5 182.7 675 181.7 674.6 180.5 674.2 179.4 673.1 178.5 672 178.8L650.6 185.7 652.9 174.5 663.2 171.2C664.3 170.8 664.8 169.8 664.5 168.6 664.1 167.5 663.1 167 662 167.3L654 169.9 656.9 156.8C657 155.9 656.1 154.5 655.3 154.4 654 154.4 652.9 154.7 652.8 156L649.7 169.6 642.5 163.1C641.5 162.6 640.3 162.6 639.6 163.2 639 163.8 638.8 164.7 639.1 165.5 639.1 165.5 639.2 165.8 639.7 166.1L648.7 174.5 646.5 185.8 628.3 169.8C627.5 168.8 626.3 168.7 625.4 169.9 625.1 170.4 624.9 170.9 625.1 171.6 625.2 172 625.4 172.4 625.5 172.8L645.4 190.3 643.3 199.4 620.1 206.9 612.3 199.7 617.5 175.4C617.9 174 617.1 173 615.9 172.9 614.9 172.4 613.8 173.2 613.4 174.6L608.8 196.6 600 189 602.4 178.1C602.5 177.2 601.8 176.2 600.8 175.7 599.5 175.7 598.4 176 598.4 177.3L596.4 185.5 587 177.2C586.2 176.2 585.1 176.5 584.1 177.3 583.8 177.8 583.7 178.7 583.9 179.4 583.9 179.4 584 179.8 584.2 180.2L594.2 189.2 584.7 192.2C583.9 192.5 583 193.6 583.4 194.7 583.7 195.9 585.1 196.3 585.9 196L597.7 192.2 606.5 199.9 583.2 207.4C582.1 207.8 581.7 209.1 582.1 210.3S583.4 211.9 584.6 211.6L610.1 203.4 617.2 209.9 611.9 233.9 602 237.1 583 219.7C582 219.1 580.7 219.1 579.7 219.9 579.4 220.4 579.3 221.3 579.5 222 579.7 222.4 579.8 222.8 580.3 223L597.5 238.5 586.4 242.1 577.6 234.4C577 233.8 575.8 233.8 574.7 234.5 574.2 235.5 574.2 236.8 574.8 237.4L581.9 243.6 569.7 247.5C568.9 247.7 568.1 249.2 568.4 250 568.7 251.1 570.3 251.9 571 251.7L583.2 247.7 581 256.4C581.1 256.8 581.2 257.2 581.3 257.6 581.6 258.4 582.2 259 582.7 259.2 584 259.3 585 258.5 585.5 257.5L587.8 246.3 598.8 242.7 593.9 265.3C593.5 266.7 594.3 267.7 595.1 267.9 596.5 268.2 597.5 267.5 598.1 266.5L603.4 241.2 613.3 238.1 631.6 254.4 629.6 263.9 604.1 272.1C602.9 272.5 602.4 273.5 602.8 274.6 603.2 275.8 604.2 276.3 605.3 275.9L628.5 268.5 625.9 279.8 614.1 283.6C613.3 283.9 612.5 285.4 612.9 286.5 613.3 287.6 614.7 288 615.4 287.8L624.9 284.7 622 297.9C622.1 298.2 622.1 298.2 622.3 298.6 622.5 299.4 623.1 300 623.6 300.3 624.9 300.3 625.9 299.5 626.1 298.7ZM617.9 236.6L616 234.7 616.5 232.4 620.8 213 621.3 210.7 623.6 210 642.2 204 644.5 203.2 646.3 204.8 661.1 218.1 662.8 219.6 662.4 222.3 658 241.3 657.6 244 655.3 244.7 636.7 250.7 634.4 251.4 632.5 249.5 617.9 236.6Z" fill="rgba(51, 121, 194, 0.58)"></path><path d="M907.4 442.6L918.2 480.8 913.2 490.5 888.7 491 882.7 481.5 892.5 442.9C892.5 442.4 892.5 442.4 892.5 441.9 892.5 441 892 440 890.5 439.6 889.1 439.6 888.1 440.1 887.7 441.6L879.3 475.3 870.3 460.6 873.8 445.7C873.8 445.7 873.8 445.2 873.8 445.2 873.8 444.2 873.3 443.3 871.9 442.8 870.9 442.4 869.5 443.4 869 444.8L866.3 454.5 859.9 443.6C859.4 442.6 857.9 442.2 856.5 442.7S855.1 445.1 855.6 446.5L862.1 457 852.4 454.8C851 454.3 849.6 455.3 849.1 456.8 849.1 457.7 849.6 459.1 851.1 459.6L866 463.1 875 478.3 841.2 469.9C839.8 469.4 838.3 470.4 837.9 471.4 837.9 472.8 838.4 474.3 839.9 474.7L878.5 484 884.4 494 872.8 514.8 861.3 515.1 832.5 487.8C831.5 486.9 830 486.9 829.1 487.9S828.2 490.3 829.2 491.2L854.6 515.2 836.9 515.6 826.1 505.2C825.1 504.3 823.7 504.3 822.2 505.3S821.3 507.7 822.3 508.7L830.1 515.7 817.2 516C815.7 516 814.8 517.5 814.8 518.9 814.9 520.3 815.8 521.3 817.3 521.2L830.2 521 823.2 528.3C821.8 529.3 821.8 530.8 823.3 531.7 824.2 532.6 825.7 532.6 826.6 531.6L837 520.9 854.7 520.5 830.3 545.5C829.3 546.5 829.4 548.4 830.3 549.3S832.8 550.2 833.7 549.2L861.4 520.4 873 520.1 885.4 541 879.8 550.7 841.6 561.6C840.2 562.1 839.7 563.5 839.8 565 840.3 566.4 841.7 566.8 843.2 566.8L876.6 557 868.2 572.1 853.4 576.2C852 576.7 851.6 578.2 851.6 579.6 852.1 580.6 853.6 581.5 855 581L864.5 578.4 858.5 589.5C858.1 590.5 858.6 591.9 859.5 592.9 861 593.3 862.4 592.8 862.9 591.9L868.9 580.7 872 590.7C872.5 591.7 873.9 592.6 874.9 592.1 876.3 592.1 876.8 591.1 876.8 589.7 876.8 589.7 876.8 589.2 876.8 589.2L872.6 574.4 881 559.3 890.7 592.7C891.3 594.2 892.2 595.1 893.7 594.6 895.1 594.1 895.6 593.1 895.5 592.2 895.5 591.7 895.5 591.7 895.5 591.7L884.2 553 889.7 543.3 914.2 542.8 919.7 552.3 910.4 591.4C909.9 592.3 910.9 593.8 911.9 594.2 913.4 594.7 914.8 593.7 915.2 592.2L923.7 558.5 932.6 573.2 929.1 588.1C928.6 589.6 929.1 591 930.6 591 932 591.4 933.4 590.4 933.9 589.5L936.1 579.3 942.5 590.2C943.5 591.2 945 591.6 946.4 591.1 946.9 590.6 947.3 589.7 947.3 588.7 947.3 588.2 947.3 588.2 946.8 587.8L940.4 576.8 950.5 579C951.9 579.5 952.9 578.5 953.3 577.5 953.3 577.1 953.3 577.1 953.3 576.6 953.3 575.6 952.8 574.7 951.8 574.2L936.9 570.7 927.9 556 961.7 564.4C963.2 564.4 964.6 563.9 964.6 562.4 965 561.9 965 561.9 965 561.5 965 560.5 964 559.6 963 559.1L924 549.8 918.5 540.3 930.1 519 941.1 518.7 970 546.5C971 547.4 972.9 547.4 973.8 546.4S974.7 543.5 973.8 542.6L948.3 518.6 965.6 518.2 976.8 528.6C977.8 529.5 979.2 529.5 980.2 528.5 981.1 527.5 981.1 526.1 980.1 525.2L972.8 518.1 985.7 517.8C986.7 517.8 988.1 516.8 988.1 515.4 988.1 514 986.6 512.5 985.6 512.6L972.7 512.8 979.7 505.5C980.2 505 980.7 504.5 980.7 504 980.6 503.1 980.1 502.6 979.7 502.1 978.7 501.2 977.2 501.2 976.3 502.2L965.5 513 948.2 513.3 972.7 488.3C973.1 487.8 973.1 487.4 973.1 486.4 973.1 485.9 973.1 485.4 972.6 485 971.6 484 969.7 484.1 968.7 485.1L941 513.5 930 513.7 917.5 493.3 922.6 483.1 961.3 472.2C962.2 471.7 963.2 470.8 963.2 469.8 963.1 469.3 963.1 469.3 962.7 469.3 962.6 467.9 961.2 467 959.7 467.5L926.3 477.3 934.7 461.7 949.5 457.6C950.4 457.1 950.9 456.1 950.9 455.2 950.9 455.2 950.8 454.7 950.8 454.7 950.8 453.3 949.4 452.3 947.9 452.8L937.9 455.9 943.9 444.7C944.4 444.3 944.4 443.8 944.4 443.3 944.4 442.3 943.9 441.4 943.4 441.4 941.9 440.5 940.5 441 939.5 442L933.5 453.1 930.9 443.6C930.4 442.1 929 441.2 927.5 441.7 926.6 442.2 925.7 443.7 926.2 444.6L930.3 459.4 922 474.5 912.2 441.1C911.7 439.6 910.2 439.2 908.8 439.2 907.8 439.7 906.9 441.2 907.4 442.6ZM891.7 496.2L910.4 495.8 913.3 495.8 914.8 498.2 924.2 513.8 925.7 516.7 924.3 519.1 915.5 535.1 914.1 537.5 911.2 537.6 892.5 538 889.6 538 888.2 535.7 878.7 520 877.2 517.6 878.6 514.7 887.4 498.7 888.8 496.3 891.7 496.2Z" fill="rgba(51, 121, 194, 0.58)"></path><path d="M1454.7 429.6L1443.1 442.7 1438.9 431.7C1438.6 430.5 1437.1 429.6 1435.3 429.8 1434 430.7 1433.1 432.3 1433.5 433.5L1438.6 448.2 1427.8 460.3 1417.5 430.4C1416.7 428.6 1415.2 427.7 1413.9 428.6 1412.1 428.8 1411.3 430.4 1412 432.2L1423.4 465.2 1413.8 476.5 1380.3 470.1 1375.8 457.8 1400.5 430C1400.6 429.5 1400.7 428.9 1400.8 428.4 1400.9 427.8 1400.6 426.6 1400.1 426 1398.7 424.6 1396.9 424.8 1396.1 426.3L1373.5 451.7 1368.5 436.5 1379.6 423.2C1380.1 423.3 1380.2 422.7 1380.3 422.2 1380.5 421.1 1380.2 419.9 1379.2 419.1 1378.2 418.4 1376.4 418.6 1375.1 419.5L1366.2 430.3 1359.6 411.4C1359.2 410.2 1357.7 409.3 1355.9 409.5 1354.6 410.4 1353.8 412 1354.1 413.2L1360.4 430.9 1348.9 428.7C1347.2 428.4 1345.8 429.8 1345.6 430.9 1345.3 432.6 1346.1 434.5 1347.7 434.8L1362.6 437.6 1367.6 452.8 1336.8 446.9C1335.2 446.6 1333.9 447.5 1333.5 449.2 1333.2 450.8 1334.1 452.1 1335.8 452.4L1369.9 459 1374.8 471.9 1352.2 497.8 1339.5 495.4 1327.7 461.7C1327.5 460 1325.4 459 1324.1 459.9 1322.3 460.1 1322 461.8 1322.2 463.5L1332.9 494.1 1317 491 1311.9 475.8C1311.6 474.6 1309.5 473.6 1308.3 474S1306.1 476.4 1306.3 478.2L1310.4 489.8 1291.1 486.1C1289.5 485.8 1288.1 487.2 1287.8 488.9 1287.5 490 1288.3 491.8 1290 492.2L1309.2 495.8 1301.1 505.7C1300.3 506.7 1300 508.3 1301.4 509.7 1302.4 510.5 1304.7 510.4 1305.5 509.4L1315.8 497.1 1331.8 500.1 1310.6 524.6C1309.7 526.1 1309.4 527.8 1310.8 529.2 1311.8 530 1314.1 529.8 1314.9 528.8L1338.4 501.4 1351 503.8 1362.5 536.2 1353.2 546.4 1319.1 539.9C1317.4 539.6 1316.1 540.5 1315.8 542.1 1315.5 543.8 1316.3 545.6 1317.9 546L1348.7 551.8 1338.4 564.1 1323.5 561.3C1321.9 561 1320.6 561.9 1320.2 563.5 1319.9 565.2 1320.8 566.5 1322.5 566.8L1334 569 1321.6 583.2C1320.9 584.1 1321 586.5 1322 587.2 1323.5 588.1 1325.2 588.4 1326 586.8L1339.1 572.2 1343.5 585.1C1344.4 586.4 1345.9 587.2 1347.1 586.9 1348.3 586.5 1349.1 585.6 1349.3 584.5 1349.3 584.5 1349.4 583.9 1349 583.2L1343.6 566.8 1353.9 554.5 1365.5 586.4C1365.7 588.2 1367.3 589 1369.1 588.2 1369.8 587.8 1370.4 587.3 1370.6 586.2 1370.7 585.7 1370.8 585.1 1370.9 584.6L1358.2 549.7 1366.9 539.9 1400.5 546.3 1405.2 560.4 1382.5 586.8C1381.1 588.2 1381.3 590 1382.9 590.9 1383.8 592.2 1385.5 591.9 1386.9 590.5L1407.5 566.5 1413.1 581.8 1402.9 593.6C1402.1 594.5 1402.4 596.3 1403.2 597.6 1404.8 598.5 1406.4 598.8 1407.3 597.2L1415.2 588.5 1421.2 605C1421.4 606.8 1423.1 607.1 1424.8 606.9 1425.5 606.4 1426.3 605.4 1426.5 604.3 1426.5 604.3 1426.6 603.8 1426.7 603.2L1420.4 585.5 1434.1 588.1C1435.2 588.3 1437.1 587.5 1437.4 585.9 1437.7 584.2 1436.3 582.8 1435.2 582.6L1418.1 579.4 1412.5 564 1446.1 570.4C1447.7 570.8 1449.1 569.3 1449.4 567.7S1448.9 564.7 1447.2 564.4L1410.4 557.4 1406 544.5 1428.6 518.6 1442.9 521.4 1454.6 555.5C1455.5 556.9 1457 557.7 1458.8 557.5 1459.5 557 1460.2 556 1460.4 554.9 1460.5 554.4 1460.6 553.8 1460.2 553.2L1449.5 522.6 1465.4 525.7 1471.1 541C1471.4 542.2 1473 543.1 1474.7 542.9 1476 542 1476.9 540.4 1476.5 539.2L1472 527 1489.6 530.3C1490.7 530.5 1492.7 529.2 1492.9 528.1 1493.2 526.4 1491.9 524.5 1490.8 524.3L1473.2 520.9 1481.8 511.7C1481.9 511.2 1482 510.6 1482.1 510.1 1482.3 509 1482 507.8 1481.5 507.1 1480 506.2 1478.2 506.5 1476.9 507.4L1466.6 519.6 1450.7 516.6 1471.9 492.1C1473.3 490.7 1473 488.9 1472 488.2 1470.6 486.8 1468.9 487 1467.5 487.9L1444.1 515.3 1429.8 512.6 1418.3 480.2 1427.1 469.9 1463.9 476.9C1465.6 477.3 1466.9 476.4 1467.2 474.7 1467.5 473.1 1466.6 471.8 1465 471.4L1431.4 465 1442.3 452.9 1459.4 456.1C1460.5 456.3 1462.4 455 1462.7 453.3 1463.1 451.7 1461.6 450.3 1460.5 450.1L1446.8 447.4 1459.2 433.3C1459.3 432.7 1459.3 432.7 1459.4 432.2 1459.6 431.1 1459.2 429.9 1458.8 429.2 1457.3 428.3 1455.5 428.6 1454.7 429.6ZM1423.2 511.3L1424.2 515 1422 517.4 1403.7 538.4 1401.5 540.8 1398.2 540.2 1371.3 535.1 1368 534.4 1366.9 531.4 1357.6 505.1 1356.5 502 1358.8 499 1377 478.6 1379.2 475.6 1382.5 476.2 1409.5 481.4 1412.8 482 1413.8 485.6 1423.2 511.3Z" fill="rgba(51, 121, 194, 0.58)"></path><path d="M1303.2 282.2L1298.5 256.2 1302.5 250 1318.7 251.3 1322.1 258 1313.1 283C1313.1 283.3 1313.1 283.3 1313 283.6 1313 284.2 1313.3 284.9 1314.2 285.3 1315.1 285.4 1315.8 285.1 1316.2 284.2L1324 262.3 1329 272.6 1325.6 282.3C1325.6 282.3 1325.6 282.6 1325.6 282.6 1325.6 283.3 1325.8 283.9 1326.8 284.3 1327.4 284.7 1328.4 284.1 1328.8 283.2L1331.2 277 1334.8 284.6C1335 285.3 1336 285.7 1337 285.4S1338 283.9 1337.8 282.9L1334.2 275.6 1340.4 277.7C1341.4 278.1 1342.4 277.5 1342.8 276.6 1342.8 275.9 1342.6 275 1341.6 274.6L1332 271.2 1327 260.6 1348.9 268.4C1349.8 268.8 1350.8 268.2 1351.2 267.6 1351.2 266.6 1351 265.7 1350.1 265.3L1325.1 256.6 1321.7 249.6 1330.8 236.5 1338.4 237.1 1355.8 257C1356.4 257.7 1357.4 257.8 1358.1 257.2S1358.8 255.7 1358.2 255L1342.9 237.4 1354.7 238.3 1361.2 245.9C1361.8 246.6 1362.7 246.7 1363.7 246.1S1364.5 244.5 1363.9 243.9L1359.2 238.7 1367.8 239.3C1368.7 239.4 1369.5 238.5 1369.5 237.6 1369.6 236.6 1369 235.9 1368.1 235.8L1359.4 235.2 1364.6 230.8C1365.6 230.2 1365.7 229.2 1364.8 228.5 1364.2 227.8 1363.2 227.8 1362.5 228.3L1355 234.8 1343.2 233.9 1361 218.9C1361.7 218.3 1361.8 217.1 1361.2 216.4S1359.7 215.6 1359 216.2L1338.7 233.6 1331 233 1324.2 218.3 1328.5 212.2 1354.5 207.5C1355.5 207.3 1355.9 206.3 1356 205.4 1355.7 204.4 1354.8 204 1353.8 203.9L1331 208.3 1337.5 198.8 1347.6 197C1348.6 196.8 1349 195.9 1349.1 194.9 1348.8 194.2 1347.9 193.5 1346.9 193.8L1340.4 194.9 1345.1 187.9C1345.5 187.2 1345.2 186.3 1344.6 185.6 1343.7 185.2 1342.7 185.4 1342.4 186L1337.6 193.1 1336.3 186.2C1336 185.5 1335.1 184.8 1334.4 185.1 1333.5 185 1333.1 185.6 1333 186.6 1333 186.6 1333 186.9 1333 186.9L1334.8 197 1328.3 206.5 1323.9 183.7C1323.7 182.7 1323.1 182 1322.1 182.2 1321.1 182.5 1320.8 183.1 1320.7 183.7 1320.7 184 1320.7 184 1320.7 184L1325.7 210.4 1321.4 216.5 1305.1 215.3 1302.1 208.6 1310.8 183.3C1311.2 182.7 1310.6 181.7 1310 181.3 1309.1 180.9 1308.1 181.5 1307.7 182.4L1299.9 204.3 1294.9 193.9 1298.2 184.2C1298.6 183.3 1298.4 182.3 1297.4 182.3 1296.5 181.9 1295.5 182.4 1295.1 183L1293 189.6 1289.4 182C1288.8 181.3 1287.9 180.9 1286.9 181.1 1286.6 181.4 1286.2 182 1286.1 182.7 1286.1 183 1286.1 183 1286.4 183.3L1290 191 1283.4 188.9C1282.5 188.5 1281.8 189.1 1281.4 189.7 1281.4 190 1281.4 190 1281.4 190.3 1281.3 191 1281.6 191.6 1282.2 192L1291.9 195.3 1296.9 205.6 1275 197.9C1274.1 197.8 1273.1 198 1273 199 1272.7 199.3 1272.7 199.3 1272.6 199.6 1272.6 200.2 1273.2 200.9 1273.8 201.3L1299.1 210 1302.1 216.6 1293.1 230.1 1285.7 229.5 1268.4 209.2C1267.8 208.5 1266.5 208.4 1265.8 209S1265 210.9 1265.6 211.6L1281 229.1 1269.5 228.2 1262.7 220.7C1262.1 220 1261.1 219.9 1260.4 220.5 1259.7 221.1 1259.7 222 1260.3 222.7L1264.7 227.9 1256.1 227.2C1255.4 227.2 1254.4 227.7 1254.4 228.7 1254.3 229.6 1255.2 230.7 1255.8 230.7L1264.4 231.4 1259.3 235.8C1258.9 236.1 1258.6 236.4 1258.5 236.7 1258.5 237.4 1258.8 237.7 1259.1 238 1259.7 238.7 1260.6 238.8 1261.3 238.2L1269.2 231.8 1280.7 232.6 1262.8 247.6C1262.5 247.9 1262.5 248.3 1262.4 248.9 1262.4 249.2 1262.4 249.5 1262.7 249.9 1263.3 250.6 1264.5 250.7 1265.2 250.1L1285.5 233 1292.8 233.6 1299.7 247.9 1295.7 254.3 1269.3 259C1268.7 259.3 1268 259.9 1267.9 260.5 1267.9 260.9 1267.9 260.9 1268.2 260.9 1268.2 261.8 1269.1 262.6 1270.1 262.3L1292.9 258 1286.3 267.7 1276.2 269.5C1275.6 269.8 1275.2 270.4 1275.2 271.1 1275.2 271.1 1275.1 271.4 1275.1 271.4 1275.1 272.3 1276 273 1277 272.8L1283.8 271.4 1279.1 278.4C1278.7 278.7 1278.7 279 1278.7 279.3 1278.6 280 1278.9 280.6 1279.2 280.7 1280.1 281.4 1281.1 281.1 1281.8 280.5L1286.5 273.5 1287.6 280C1287.9 281 1288.8 281.7 1289.8 281.5 1290.4 281.2 1291.1 280.3 1290.9 279.6L1289.1 269.6 1295.6 260.1 1299.9 282.9C1300.2 283.9 1301.1 284.3 1302.1 284.4 1302.7 284.1 1303.4 283.2 1303.2 282.2ZM1317.1 247.6L1304.6 246.7 1302.7 246.5 1301.9 244.9 1296.6 233.9 1295.8 231.9 1296.9 230.4 1303.8 220.3 1304.9 218.8 1306.8 218.9 1319.2 219.9 1321.1 220 1322 221.7 1327.2 232.7 1328.1 234.4 1326.9 236.2 1320.1 246.3 1319 247.8 1317.1 247.6Z" fill="rgba(51, 121, 194, 0.58)"></path><path d="M630.2 448.4L633.7 460.5 625.5 458.7C624.6 458.5 623.5 459.1 623 460.2 623 461.4 623.6 462.5 624.5 462.7L635.3 465.2 638.5 476.4 616.5 471.2C615.1 470.9 614 471.5 614 472.7 613.5 473.8 614.1 474.9 615.5 475.2L639.7 480.9 642.9 491 626.2 508.8 617.1 506.8 609.7 481.3C609.5 481 609.2 480.7 608.9 480.5 608.6 480.2 607.7 479.9 607.2 480 605.8 480.3 605.2 481.4 605.8 482.5L612.5 505.8 601.4 503.1 597.6 491.3C597.9 491 597.6 490.7 597.3 490.4 596.7 489.9 595.9 489.6 595 490 594.2 490.3 593.7 491.4 593.7 492.5L596.8 502.1 582.8 498.8C582 498.6 580.9 499.2 580.3 500.3 580.4 501.4 581 502.6 581.8 502.8L594.9 505.8 589.2 511.9C588.4 512.8 588.7 514.2 589.3 514.8 590.2 515.6 591.6 515.8 592.4 514.9L599.8 507.1 610.9 509.8 595.6 526.2C594.8 527 594.8 528.2 595.7 529 596.5 529.8 597.7 529.8 598.5 528.9L615.5 510.8 625.2 512.8 632.1 536.3 625.8 543 601 537.3C599.9 536.8 598.5 537.7 598.5 538.8 598 539.9 598.9 540.8 600 541.3L622.5 546.5 614.6 555 603.5 552.2C602.6 552 601.2 552.9 601 553.7S601.6 556 602.7 556.5L611.3 558.5 601.7 568.7C600.9 569.6 601.2 571 602.1 571.8 602.7 572.3 604.1 572.6 604.9 571.7L614.5 561.5 617.3 570.2C617.6 571 618.5 571.9 619.9 571.5 620.7 571.2 621.6 569.8 621.2 568.9L617.8 558 625.7 549.6 632.4 571.7C633 572.8 633.8 573.6 635.2 573.3 636.1 573 636.9 571.6 636.6 570.7L629 546.1 635.3 539.4 659.3 544.8 661.8 554.4 644.8 572.5C644 573.3 644.1 574.5 644.9 575.3 645.8 576.1 647.2 576.3 648 575.5L663.4 559.1 666.8 570.1 659.4 577.9C658.6 578.8 658.7 579.9 659.5 580.8 660.4 581.6 661.5 581.6 662.4 580.7L668.1 574.6 671.9 587.5C672.2 588.3 673.7 589.1 674.5 588.8 675.6 588.2 676.4 587.3 675.8 586.2L672 572.7 681.4 575C682.6 575 683.7 574.4 683.9 573.5 684.2 572.6 683.9 571.8 683.3 571.3 683.3 571.3 683 571 682.4 571L670.5 568 667 557 690.7 562.3C691.8 562.8 692.9 562.2 693.2 560.8 693.1 560.2 693.1 559.6 692.5 559.1 692.2 558.8 691.9 558.5 691.7 558.3L665.7 552.6 663.2 543.6 679.9 525.8 690.2 528.3 697.4 552.1C697.7 553.5 698.9 554.1 700 553.5 701.1 553.4 701.7 552.3 701.3 550.9L694.7 529.3 706.1 531.8 709.3 542.4C709.6 543.3 710.7 543.8 711.9 543.8 713 543.2 713.8 542.3 713.2 541.2L711 533 723.2 535.8C724.4 536.3 725.2 535.4 725.7 534.3 725.7 533.7 725.4 532.9 724.8 532.3 724.8 532.3 724.5 532.1 724.2 531.8L711.1 528.8 718 521.5C718.5 520.9 718.8 519.5 717.9 518.7 717 517.9 715.6 518.2 715 518.8L706.6 527.8 695.2 525.3 711.9 507.5C712.7 506.7 712.4 505.3 711.5 504.4S709.5 503.7 708.7 504.5L690.3 524.1 680.9 521.8 673.9 498.3 681.1 490.7 706.2 496.7C707.3 496.7 708.4 496.1 708.9 494.9 708.9 494.3 708.6 493.5 708 493 707.7 492.7 707.4 492.4 706.9 492.4L684.4 487.2 692.3 478.7 703.7 481.2C704.6 481.5 705.7 480.9 706.2 479.7 706.2 478.6 705.6 477.5 704.7 477.2L695.6 475.2 704.4 465.9C704.9 465.3 704.8 463.6 704.3 463.1 703.4 462.2 701.7 462.3 701.1 462.9L692.4 472.2 690.1 463.5C689.8 463.2 689.5 463 689.3 462.7 688.7 462.1 687.8 461.9 687.2 461.9 686.1 462.5 685.6 463.7 685.6 464.8L689.1 475.7 681.1 484.2 674.5 462C674.2 460.6 673 460.1 672.2 460.4 670.8 460.7 670.3 461.9 670.3 463L677.9 487.7 670.7 495.2 646.8 489.8 644 480.5 662.3 461C663.1 460.1 663.1 459 662.2 458.2 661.4 457.3 660.2 457.4 659.4 458.2L642.7 476 639.5 464.8 648 455.8C648.6 455.2 648.5 453.5 647.6 452.7 646.8 451.8 645.3 452.2 644.8 452.8L638 460 634.2 447.1C633.9 446.9 633.9 446.9 633.6 446.6 633 446 632.1 445.8 631.6 445.8 630.5 446.4 629.9 447.6 630.2 448.4ZM667.5 498.7L670 499.5 670.7 501.8 676.3 520.8 677 523.1 675.3 524.8 661.9 539.1 660.3 540.8 658 540.3 638.6 535.9 636.3 535.4 635.4 532.8 630 514.1 629.1 511.5 630.7 509.8 644.1 495.5 645.8 493.8 648.4 494.5 667.5 498.7Z" fill="rgba(51, 121, 194, 0.58)"></path><path d="M256.6 107L265.6 139 250.9 164.6 236 139.1 244.6 107.1C244.6 107.1 244.6 106.7 244.6 106.7 244.6 105.9 243.8 105.1 243 104.7 241.8 104.3 240.6 105.1 240.6 106.3L233.2 134.3 225.9 122 229.1 109.6C229.1 109.6 229 109.2 229 109.2 229 108.4 228.2 107.6 227.4 107.2 226.2 106.8 225 107.6 225 108.8L222.7 117.2 217.4 108C217 107.2 215.4 106.8 214.6 107.2 213.4 107.6 213.4 109.2 213.9 110L219.1 119.2 210.7 116.9C209.5 116.5 208.3 117.3 208.3 118.5 207.9 119.7 208.7 120.9 209.9 120.9L222.3 124 229.2 136.4 201.2 128.9C199.9 128.5 198.8 129.3 198.8 130.5 198.4 131.7 199.2 132.9 200.4 132.9L232.4 141.5 247.4 167.1 217.4 167.2 193.6 143.7C192.8 142.9 191.6 143 190.8 143.8 190 144.6 190 145.8 190.8 146.6L211.8 167.2 197.4 167.3 188.5 158.6C187.7 157.8 186.5 157.8 185.7 158.6 184.9 159.4 184.9 160.6 185.7 161.4L191.8 167.3 180.6 167.4C179.4 167 178.6 168.2 178.6 169.4 178.6 170.6 179.4 171.4 180.6 171.4L191 171.4 185 177.4C184.2 178.2 184.2 179.4 185 180.2S187 181 187.8 180.2L196.6 171.3 211 171.2 190.3 192.2C189.5 193 189.5 194.2 190.3 195 191.1 195.8 192.3 195.7 193.1 194.9L216.6 171.2 246.2 171.1 231.5 196.7 200.4 205.3C199.2 205.7 198.8 206.9 198.8 208.1 199.2 209.3 200.4 209.7 201.6 209.7L229.5 202 222.4 214.4 210 217.7C208.8 218.1 208.4 219.3 208.4 220.5 208.8 221.7 210 222.1 210.8 222.1L219.2 219.6 214.1 228.8C213.7 229.6 213.7 231.2 214.9 231.6 216.1 232 217.3 232 217.7 230.8L222.8 221.6 225.3 230C225.7 231.2 226.9 231.6 227.7 231.6 228.5 231.2 229.3 230.4 229.3 229.6 229.3 229.6 229.3 229.2 229.3 229.2L226 216.8 233.1 204.3 240.9 232.3C241.3 233.5 242.5 233.9 243.3 233.9 244.1 233.5 244.9 232.7 244.9 231.9 244.9 231.9 244.9 231.5 244.9 231.5L235.9 199.5 250.6 173.8 265.5 199.4 256.9 231.4C256.5 232.6 257.3 233.8 258.5 233.8 259.7 234.2 260.9 233.4 260.9 232.2L268.3 204.1 275.6 216.5 272.5 228.9C272.1 230.1 272.9 231.3 274.1 231.3 275.3 231.7 276.5 230.9 276.5 229.7L278.8 221.3 284.1 230.5C284.5 231.3 286.1 231.7 286.9 231.3 287.7 230.8 288.1 230 288.1 229.2 288.1 228.8 288.1 228.4 287.7 228L282.4 218.9 290.8 221.2C292 221.6 293.2 220.8 293.2 219.6 293.2 219.6 293.2 219.2 293.2 219.2 293.2 218.4 292.4 217.6 291.6 217.2L279.2 214.1 271.9 201.7 300 209.2C301.2 209.6 302.4 208.8 302.4 207.6 302.4 207.6 302.4 207.2 302.4 207.2 302.4 206.4 301.6 205.6 300.8 205.2L268.7 196.5 253.8 171 283.4 170.9 307.1 194.3C307.9 195.1 309.1 195.1 309.9 194.3 310.7 193.5 310.7 192.3 309.9 191.5L289.4 170.8 303.8 170.8 312.6 179.5C313.4 180.3 314.6 180.3 315.4 179.5S316.2 177.5 315.4 176.7L309.4 170.7 319.8 170.7C321 170.7 321.8 169.9 321.8 168.7 321.8 167.5 321 166.7 319.8 166.7L309.4 166.7 315.3 160.7C315.7 160.3 316.1 159.9 316.1 159.1S315.7 157.9 315.3 157.5C314.5 156.7 313.3 156.7 312.5 157.5L303.7 166.4 289.3 166.4 310 145.5C310.4 145.1 310.8 144.7 310.8 143.9 310.8 143.5 310.4 142.7 310 142.3 309.2 141.5 308 141.5 307.2 142.3L283.7 166.1 254.1 166.2 268.8 140.5 300.8 131.6C301.6 131.2 302.4 130.4 302.4 129.6 302.4 129.6 302.4 129.2 302.4 129.2 301.9 128 300.7 127.6 299.9 127.6L272 135.3 279.1 122.9 291.5 119.6C292.3 119.2 293.1 118.4 293.1 117.6 293.1 117.6 293.1 117.2 293.1 117.2 292.7 116 291.5 115.6 290.7 115.6L282.3 118.1 287.4 108.8C287.4 108.4 287.8 108 287.8 107.6 287.8 106.8 287.4 106 286.6 105.7 285.4 105.3 284.2 105.3 283.8 106.5L278.7 115.7 276.2 107.3C275.8 106.1 274.6 105.7 273.8 105.7 272.6 106.1 272.2 107.3 272.2 108.1L275.5 120.5 268.4 132.9 260.6 105C260.2 103.8 259 103.4 258.2 103.4 257 104.6 256.2 105.8 256.6 107Z" fill="rgba(51, 121, 194, 0.58)"></path><path d="M29.8 377.8L54.6 368.6 61.3 371.5 62.9 387.8 56.9 392.2 30.7 387.7C30.4 387.7 30.4 387.7 30.1 387.7 29.4 387.8 28.8 388.2 28.6 389.1 28.7 390.1 29.1 390.7 30.1 390.9L52.9 394.8 43.6 401.5 33.5 399.9C33.5 399.9 33.2 400 33.2 400 32.5 400 31.9 400.4 31.7 401.4 31.5 402 32.2 402.9 33.2 403.2L39.7 404.5 32.8 409.3C32.2 409.7 32 410.7 32.4 411.6S34.1 412.4 35 412L41.6 407.2 40.6 413.7C40.4 414.7 41.1 415.6 42.1 415.8 42.7 415.7 43.7 415.3 43.9 414.4L45.5 404.2 55.1 397.5 51.2 420.4C51 421.4 51.7 422.3 52.4 422.5 53.4 422.4 54.3 422 54.5 421L58.7 394.9 65.1 390.5 79.5 397.1 80.3 404.7 63.6 425.3C63 426 63.1 427 63.8 427.5S65.5 428 66 427.3L80.7 409.2 81.8 421 75.5 428.7C74.9 429.4 75 430.3 75.7 431.2S77.4 431.7 78 431L82.3 425.4 83.1 434C83.2 435 84.2 435.5 85.1 435.5 86.1 435.4 86.7 434.7 86.6 433.7L85.8 425.1 91 429.4C91.7 430.3 92.7 430.2 93.2 429.2 93.8 428.5 93.7 427.6 93 427L85.3 420.7 84.2 408.9 102 423.9C102.7 424.4 104 424.3 104.6 423.6S105.1 422 104.4 421.4L83.8 404.4 83 396.8 96.3 387.4 103 390.7 112.2 415.5C112.6 416.4 113.6 416.6 114.5 416.6 115.4 416.1 115.7 415.2 115.6 414.2L107.4 392.5 117.8 397.3 121.3 406.9C121.7 407.8 122.7 408.1 123.6 408 124.3 407.6 124.8 406.6 124.4 405.6L122.2 399.4 129.9 402.9C130.6 403.1 131.5 402.7 132.1 402 132.3 401 131.9 400.1 131.2 399.8L123.5 396.4 130 393.8C130.6 393.5 131.2 392.4 130.8 391.8 130.7 390.9 130 390.6 129.1 390.7 129.1 390.7 128.7 390.8 128.7 390.8L119.1 394.3 108.7 389.5 130.4 381.3C131.3 380.9 131.9 380.2 131.5 379.2 131.1 378.3 130.4 378.1 129.8 378.1 129.5 378.1 129.5 378.1 129.5 378.1L104.3 387.6 97.6 384.4 96 368.2 102.1 364.1 128.5 368.3C129.2 368.5 130.1 367.8 130.3 367.1 130.6 366.1 129.8 365.3 128.8 365L106 361.1 115.3 354.4 125.4 356C126.4 356.3 127.3 355.8 127.2 354.9 127.4 353.9 126.7 353 126 352.8L119.2 351.8 126.1 347C126.7 346.3 126.9 345.3 126.5 344.4 126.2 344.1 125.5 343.8 124.9 343.9 124.6 343.9 124.6 343.9 124.3 344.2L117.3 349.1 118.3 342.3C118.5 341.3 117.8 340.7 117.1 340.4 116.8 340.5 116.8 340.5 116.5 340.5 115.9 340.6 115.3 340.9 115 341.6L113.4 351.7 104.1 358.4 108 335.5C107.9 334.6 107.5 333.6 106.5 333.7 106.2 333.5 106.2 333.5 105.9 333.5 105.2 333.5 104.7 334.2 104.4 334.9L100.2 361.4 94.2 365.5 79.4 358.9 78.7 351.5 95.7 330.9C96.2 330.2 96.1 329 95.4 328.4S93.4 327.9 92.9 328.6L78.2 346.8 77.1 335.3 83.4 327.3C84 326.6 83.9 325.6 83.2 325.1 82.5 324.5 81.5 324.6 81 325.3L76.6 330.5 75.8 321.9C75.8 321.3 75 320.4 74.1 320.5 73.1 320.6 72.3 321.6 72.3 322.2L73.1 330.8 67.9 326.5C67.6 326.2 67.2 326 66.9 326 66.3 326 66 326.4 65.7 326.7 65.1 327.4 65.2 328.4 65.9 329L73.6 335.6 74.7 347.1 56.9 332.1C56.5 331.8 56.2 331.8 55.6 331.9 55.2 331.9 54.9 332 54.6 332.3 54.1 333 54.2 334.3 54.9 334.9L75.2 351.9 75.9 359.2 62.9 368.5 55.9 365.6 46.7 340.5C46.4 339.9 45.7 339.3 45 339.3 44.7 339.4 44.7 339.4 44.7 339.7 43.8 339.8 43.2 340.8 43.7 341.7L51.9 363.4 41.1 358.7 37.6 349.1C37.2 348.4 36.6 348.2 35.9 348.3 35.9 348.3 35.6 348.3 35.6 348.3 34.6 348.4 34.1 349.4 34.5 350.3L37.1 356.8 29.3 353.4C29 353.1 28.7 353.1 28.4 353.2 27.7 353.2 27.1 353.6 27.1 353.9 26.6 354.9 27 355.9 27.7 356.4L35.4 359.9 29.2 362.1C28.3 362.5 27.7 363.5 28.2 364.4 28.5 365 29.6 365.6 30.2 365.2L39.8 361.7 50.2 366.5 28.5 374.7C27.6 375.1 27.3 376.1 27.4 377 27.8 377.6 28.8 378.2 29.8 377.8ZM66.2 385.5L65 373.1 64.8 371.2 66.3 370.1 76.2 363 78.1 361.9 79.7 362.7 90.8 367.7 92.5 368.5 92.7 370.4 93.9 382.9 94.1 384.8 92.6 385.9 82.7 392.9 81.2 394 79.2 393.3 68.1 388.2 66.4 387.4 66.2 385.5Z" fill="rgba(51, 121, 194, 0.58)"></path><path d="M1152.8 376.1L1143.4 379.4 1144.4 372.8C1144.5 372.1 1144 371.2 1143.1 370.8 1142.2 370.9 1141.3 371.4 1141.1 372.1L1139.6 380.9 1130.8 383.9 1134 366.1C1134.2 365 1133.6 364.1 1132.7 364.2 1131.8 363.8 1130.9 364.4 1130.8 365.5L1127.3 385.1 1119.3 388.1 1104.4 375.5 1105.6 368.1 1125.7 361.2C1125.9 360.9 1126.1 360.7 1126.3 360.4 1126.5 360.2 1126.7 359.5 1126.6 359.1 1126.3 357.9 1125.4 357.6 1124.5 358.1L1106.2 364.4 1107.9 355.4 1117.2 351.9C1117.4 352.1 1117.6 351.9 1117.8 351.6 1118.2 351.1 1118.4 350.4 1118.1 349.8 1117.8 349.1 1116.9 348.8 1116 348.8L1108.5 351.7 1110.5 340.5C1110.7 339.8 1110.1 338.9 1109.2 338.5 1108.3 338.6 1107.4 339.1 1107.3 339.8L1105.5 350.4 1100.3 346.1C1099.6 345.5 1098.5 345.8 1098.1 346.3 1097.4 347 1097.3 348.2 1098 348.8L1104.7 354.4 1102.9 363.4 1089.2 351.8C1088.5 351.2 1087.6 351.3 1087 352 1086.3 352.7 1086.4 353.6 1087.2 354.3L1102.3 367 1101.2 374.9 1082.7 381.4 1077 376.7 1080.5 356.6C1080.9 355.7 1080.1 354.6 1079.2 354.7 1078.3 354.3 1077.7 355.1 1077.3 356L1074.1 374.2 1067 368.2 1068.7 359.2C1068.9 358.5 1068.1 357.5 1067.4 357.3S1065.7 357.9 1065.3 358.9L1064.1 365.8 1055.5 358.6C1054.8 357.9 1053.7 358.3 1053 359 1052.6 359.5 1052.5 360.6 1053.2 361.2L1061.8 368.5 1055 371.1C1054.3 371.4 1053.7 372.1 1054 373.2 1054.3 373.9 1055.5 374.5 1056.2 374.2L1064.7 370.9 1071.8 376.9 1054.4 383.2C1053.6 383.7 1052.9 384.4 1053.3 385.5 1053.6 386.2 1054.7 386.8 1055.4 386.5L1074.8 379.4 1080.4 384.1 1077.1 403.5 1069.6 406 1054.4 393.2C1053.6 392.6 1052.7 392.6 1052.1 393.4 1051.5 394.1 1051.4 395.2 1052.1 395.9L1065.8 407.4 1057.2 410.6 1050.6 405.1C1049.9 404.5 1049 404.5 1048.4 405.3 1047.8 406 1047.8 406.9 1048.6 407.5L1053.7 411.9 1043.6 415.4C1042.9 415.7 1042.3 416.9 1042.6 417.6 1043.1 418.4 1043.9 419.1 1044.7 418.5L1055.3 414.9 1053.9 422.5C1054 423.4 1054.5 424.3 1055.2 424.4 1055.9 424.6 1056.6 424.3 1057 423.8 1057 423.8 1057.2 423.6 1057.2 423.1L1059.1 413.4 1067.6 410.2 1064.5 429.3C1064.1 430.3 1064.7 431.1 1065.8 431.3 1066.3 431.2 1066.7 431.2 1067.1 430.7 1067.3 430.4 1067.5 430.2 1067.7 430L1071.2 409 1078.2 406.6 1093.2 419.1 1091.6 427.5 1072.9 434.3C1071.8 434.6 1071.4 435.5 1071.9 436.4 1072 437.3 1072.9 437.7 1074.1 437.4L1091 431.1 1089.5 440.4 1081.2 443.3C1080.5 443.6 1080.1 444.6 1080.2 445.5 1080.7 446.3 1081.5 446.9 1082.3 446.4L1088.7 444.3 1087.1 454.2C1086.7 455.1 1087.4 455.7 1088.4 456.1 1088.8 456.1 1089.5 455.8 1089.9 455.3 1089.9 455.3 1090.1 455.1 1090.3 454.8L1092.1 444.2 1098.2 449.4C1098.7 449.8 1099.9 449.9 1100.5 449.2 1101.1 448.4 1100.8 447.3 1100.3 446.9L1092.7 440.5 1094.2 431.3 1109.1 443.9C1109.9 444.5 1111 444.2 1111.6 443.5S1112.1 441.8 1111.4 441.2L1095 427.4 1096.4 419.8 1114.9 413.2 1121.3 418.6 1117.6 438.9C1117.6 439.8 1118.2 440.6 1119.1 441 1119.6 441 1120.2 440.7 1120.6 440.2 1120.8 439.9 1121 439.7 1121 439.3L1124.2 421 1131.3 427 1129.8 436.2C1129.7 436.9 1130.2 437.8 1131.1 438.2 1132 438.1 1132.9 437.6 1133.1 436.9L1134.2 429.5 1142.1 436.1C1142.6 436.5 1143.9 436.4 1144.3 435.9 1144.9 435.2 1144.8 433.8 1144.3 433.4L1136.5 426.8 1143.4 424.6C1143.6 424.4 1143.8 424.1 1144 423.9 1144.4 423.4 1144.6 422.7 1144.5 422.2 1144 421.4 1143.1 421 1142.2 421.1L1133.6 424.3 1126.5 418.3 1143.9 412.1C1145 411.8 1145.4 410.8 1145.1 410.2 1144.8 409.1 1143.8 408.7 1142.9 408.8L1123.5 415.9 1117.2 410.5 1120.5 391.1 1127.8 388.5 1144.2 402.3C1144.9 402.9 1145.8 402.8 1146.4 402.1 1147.1 401.4 1147 400.5 1146.2 399.8L1131.3 387.3 1140.1 384.2 1147.7 390.6C1148.2 391 1149.6 390.9 1150.2 390.2 1150.8 389.5 1150.5 388.4 1150 387.9L1143.9 382.8 1154 379.2C1154.2 379 1154.2 379 1154.4 378.7 1154.8 378.2 1155 377.5 1155 377.1 1154.4 376.2 1153.5 375.8 1152.8 376.1ZM1114.2 408L1113.7 410.1 1112 410.7 1097 416.1 1095.2 416.7 1093.8 415.5 1081.8 405.4 1080.3 404.1 1080.6 402.3 1083.3 386.6 1083.6 384.8 1085.6 383.9 1100.4 378.8 1102.4 377.9 1103.8 379.2 1115.8 389.3 1117.3 390.5 1116.8 392.6 1114.2 408Z" fill="rgba(51, 121, 194, 0.58)"></path></g><defs><mask id="SvgjsMask1000"><rect width="1440" height="560" fill="#ffffff"></rect></mask><filter id="SvgjsFilter1001"><feGaussianBlur stdDeviation="1"></feGaussianBlur></filter></defs></svg>